<svg width="33" height="33" viewBox="0 0 33 33" fill="none" xmlns="http://www.w3.org/2000/svg">
<path d="M2.54443 17.9769V14.6329L14.4044 8.43286V11.5049L5.64443 16.2439L14.4064 21.0789V24.1789L2.54443 17.9769ZM30.3584 9.09686L20.0094 23.5339H16.4564L26.8254 9.09586L30.3584 9.09686ZM27.4914 21.8049C27.6087 21.8071 27.7251 21.7834 27.8321 21.7353C27.9392 21.6872 28.0342 21.6161 28.1104 21.5269C28.2822 21.3227 28.3707 21.0614 28.3584 20.7949C28.3684 20.5223 28.2804 20.2552 28.1104 20.0419C28.0387 19.9487 27.9465 19.8733 27.841 19.8213C27.7355 19.7694 27.6195 19.7424 27.5019 19.7424C27.3844 19.7424 27.2683 19.7694 27.1628 19.8213C27.0573 19.8733 26.9652 19.9487 26.8934 20.0419C26.7234 20.2552 26.6354 20.5223 26.6454 20.7949C26.6328 21.0596 26.7171 21.3198 26.8824 21.5269C26.9561 21.6164 27.0493 21.688 27.1548 21.7362C27.2603 21.7844 27.3755 21.8079 27.4914 21.8049V21.8049ZM29.6774 22.8469C29.0805 23.3864 28.3041 23.6842 27.4995 23.6824C26.6949 23.6805 25.9199 23.3791 25.3254 22.8369C25.052 22.5701 24.8346 22.2512 24.6863 21.8992C24.5379 21.5471 24.4614 21.1689 24.4614 20.7869C24.4614 20.4048 24.5379 20.0266 24.6863 19.6745C24.8346 19.3225 25.052 19.0037 25.3254 18.7369C25.9196 18.193 26.6959 17.8914 27.5014 17.8914C28.3069 17.8914 29.0832 18.193 29.6774 18.7369C29.9562 19.0006 30.1772 19.3193 30.3265 19.6729C30.4757 20.0264 30.5499 20.4071 30.5444 20.7909C30.5518 21.1745 30.4785 21.5553 30.3293 21.9088C30.1802 22.2623 29.9584 22.5805 29.6784 22.8429L29.6774 22.8469ZM19.3654 13.3659C19.4827 13.3681 19.5991 13.3444 19.7061 13.2963C19.8132 13.2482 19.9082 13.1771 19.9844 13.0879C20.1562 12.8837 20.2447 12.6224 20.2324 12.3559C20.2424 12.0833 20.1544 11.8162 19.9844 11.6029C19.9126 11.5099 19.8204 11.4346 19.7149 11.3828C19.6094 11.331 19.4934 11.3041 19.3759 11.3041C19.2584 11.3041 19.1425 11.331 19.037 11.3828C18.9315 11.4346 18.8393 11.5099 18.7674 11.6029C18.5974 11.8162 18.5094 12.0833 18.5194 12.3559C18.5068 12.6206 18.5911 12.8808 18.7564 13.0879C18.8301 13.1774 18.9233 13.249 19.0288 13.2972C19.1343 13.3454 19.2495 13.3689 19.3654 13.3659V13.3659ZM21.5514 14.4049C20.9545 14.9444 20.1781 15.2422 19.3735 15.2404C18.5689 15.2385 17.7939 14.9371 17.1994 14.3949C16.926 14.1281 16.7086 13.8092 16.5603 13.4572C16.4119 13.1051 16.3354 12.7269 16.3354 12.3449C16.3354 11.9628 16.4119 11.5846 16.5603 11.2325C16.7086 10.8805 16.926 10.5617 17.1994 10.2949C17.7936 9.75103 18.5699 9.44941 19.3754 9.44941C20.1809 9.44941 20.9572 9.75103 21.5514 10.2949C21.8312 10.5597 22.0526 10.8799 22.2017 11.2351C22.3508 11.5903 22.4243 11.9727 22.4174 12.3579C22.4241 12.7406 22.3505 13.1205 22.2013 13.4731C22.0522 13.8257 21.8308 14.1431 21.5514 14.4049V14.4049Z" fill="#90A93A"/>
</svg>
