<svg width="2497" height="1529" viewBox="0 0 2497 1529" fill="none" xmlns="http://www.w3.org/2000/svg">
<path d="M1234.6 1528.58C1226.14 1528.58 1218.24 1526.32 1210.9 1522.37L1135.86 1477.8C1124.57 1471.59 1130.21 1469.33 1133.6 1468.2C1148.83 1463.13 1151.65 1461.99 1167.45 1452.97C1169.15 1451.84 1171.41 1452.41 1173.1 1453.53L1230.65 1487.95C1232.91 1489.08 1235.73 1489.08 1237.42 1487.95L1462.56 1357.61C1464.82 1356.48 1465.95 1354.22 1465.95 1351.4V1091.28C1465.95 1088.46 1464.82 1086.2 1462.56 1085.07L1237.42 955.294C1235.16 954.162 1232.34 954.162 1230.65 955.294L1005.51 1085.07C1003.26 1086.2 1002.12 1089.02 1002.12 1091.28V1351.4C1002.12 1353.66 1003.26 1356.48 1005.51 1357.61L1067.02 1393.16C1100.31 1410.08 1121.18 1390.33 1121.18 1370.59V1113.85C1121.18 1110.46 1124.01 1107.08 1127.96 1107.08H1156.73C1160.12 1107.08 1163.5 1109.9 1163.5 1113.85V1370.59C1163.5 1415.16 1139.24 1441.12 1096.92 1441.12C1083.94 1441.12 1073.79 1441.12 1045.01 1427.01L985.763 1393.16C971.092 1384.7 962.065 1368.89 962.065 1351.97V1091.84C962.065 1074.92 971.092 1059.11 985.763 1050.65L1210.9 920.309C1225.01 912.409 1244.2 912.409 1258.3 920.309L1483.44 1050.65C1498.11 1059.11 1507.14 1074.92 1507.14 1091.84V1351.97C1507.14 1368.89 1498.11 1384.7 1483.44 1393.16L1258.3 1523.5C1250.96 1526.89 1242.5 1528.58 1234.6 1528.58H1234.6ZM1304 1349.71C1205.26 1349.71 1184.95 1304.57 1184.95 1266.2C1184.95 1262.81 1187.77 1259.43 1191.72 1259.43H1221.06C1224.44 1259.43 1227.26 1261.68 1227.26 1265.07C1231.78 1294.98 1244.76 1309.65 1304.57 1309.65C1351.96 1309.65 1372.28 1298.93 1372.28 1273.53C1372.28 1258.86 1366.64 1248.15 1292.72 1240.81C1231.21 1234.6 1192.84 1221.06 1192.84 1171.97C1192.84 1126.26 1231.22 1099.18 1295.54 1099.18C1367.76 1099.18 1403.32 1124.01 1407.83 1178.17C1407.83 1179.87 1407.26 1181.56 1406.14 1183.25C1405 1184.38 1403.32 1185.51 1401.62 1185.51H1372.28C1369.46 1185.51 1366.64 1183.25 1366.07 1180.43C1359.3 1149.4 1341.81 1139.24 1295.54 1139.24C1243.63 1139.24 1237.42 1157.3 1237.42 1170.84C1237.42 1187.2 1244.76 1192.28 1314.72 1201.31C1384.13 1210.34 1416.86 1223.32 1416.86 1271.84C1416.29 1321.5 1375.67 1349.71 1304 1349.71Z" fill="#539E43"/>
<path d="M536.047 511.223C536.047 501.068 530.403 491.469 521.376 486.392L282.131 348.715C278.176 346.454 273.665 345.327 269.154 344.76H266.893C262.382 344.76 257.866 346.454 253.917 348.715L14.6709 486.392C5.6389 491.469 0 501.063 0 511.223L0.566331 881.374C0.566331 886.451 3.38822 891.529 7.89934 893.789C12.4153 896.611 18.0542 896.611 22.0088 893.789L164.202 812.535C173.229 807.458 178.873 797.864 178.873 787.709V614.48C178.873 604.325 184.512 594.732 193.544 589.655L253.917 554.669C258.433 551.847 263.51 550.714 268.587 550.714C273.665 550.714 278.742 551.847 282.697 554.669L343.07 589.655C352.102 594.732 357.741 604.321 357.741 614.48V787.709C357.741 797.864 363.384 807.458 372.412 812.535L514.605 893.789C519.121 896.611 524.76 896.611 529.276 893.789C533.792 891.529 536.613 886.451 536.613 881.374L536.047 511.223ZM1686.01 1.69533C1681.5 -0.565111 1675.85 -0.565111 1671.9 1.69533C1667.39 4.51722 1664.56 9.02834 1664.56 14.1058V380.878C1664.56 384.262 1662.88 387.645 1659.49 389.906C1656.1 391.595 1652.72 391.595 1649.33 389.906L1589.52 355.486C1585.14 352.99 1580.18 351.677 1575.13 351.677C1570.08 351.677 1565.13 352.99 1560.74 355.486L1321.49 493.73C1312.47 498.807 1306.82 508.401 1306.82 518.556V794.476C1306.82 804.631 1312.47 814.229 1321.49 819.307L1560.74 957.55C1565.13 960.047 1570.08 961.36 1575.13 961.36C1580.18 961.36 1585.14 960.047 1589.52 957.55L1828.77 819.307C1837.79 814.229 1843.44 804.636 1843.44 794.476V106.647C1843.44 95.926 1837.79 86.3374 1828.77 81.2551L1686.01 1.69533H1686.01ZM1664 703.634C1664 706.455 1662.88 708.711 1660.61 709.839L1578.8 757.235C1577.66 757.792 1576.4 758.082 1575.13 758.082C1573.86 758.082 1572.6 757.792 1571.46 757.235L1489.65 709.839C1487.39 708.711 1486.26 705.889 1486.26 703.634V608.837C1486.26 606.015 1487.39 603.759 1489.65 602.631L1571.46 555.23C1572.6 554.673 1573.86 554.383 1575.13 554.383C1576.4 554.383 1577.66 554.673 1578.8 555.23L1660.61 602.631C1662.88 603.754 1664 606.581 1664 608.837V703.634ZM2482.18 606.581C2491.21 601.504 2496.29 591.91 2496.29 581.75V514.606C2496.29 504.451 2490.64 494.858 2482.18 489.78L2244.62 352.103C2240.24 349.607 2235.28 348.295 2230.24 348.295C2225.19 348.295 2220.23 349.607 2215.85 352.103L1976.6 490.342C1967.57 495.419 1961.93 505.012 1961.93 515.172V791.093C1961.93 801.248 1967.57 810.841 1976.6 815.918L2214.15 951.34C2223.19 956.417 2233.9 956.417 2242.37 951.34L2386.25 871.224C2390.77 868.963 2393.59 863.886 2393.59 858.808C2393.59 853.731 2390.77 848.653 2386.25 846.393L2145.88 708.15C2141.37 705.333 2138.54 700.816 2138.54 695.739V609.408C2138.54 604.33 2141.37 599.253 2145.88 596.992L2220.93 554.107C2223.12 552.725 2225.67 551.991 2228.26 551.991C2230.86 551.991 2233.4 552.725 2235.6 554.107L2310.64 596.992C2315.16 599.814 2317.98 604.325 2317.98 609.408V677.118C2317.98 682.196 2320.8 687.273 2325.31 689.529C2329.83 692.351 2335.47 692.351 2339.98 689.529L2482.18 606.581V606.581Z" fill="#333333"/>
<path d="M2226.57 593.604C2227.41 593.053 2228.39 592.759 2229.39 592.759C2230.39 592.759 2231.37 593.053 2232.21 593.604L2277.92 620.124C2279.61 621.247 2280.74 622.941 2280.74 625.202V678.241C2280.74 680.497 2279.61 682.191 2277.92 683.319L2232.21 709.839C2231.37 710.39 2230.39 710.684 2229.39 710.684C2228.39 710.684 2227.41 710.39 2226.57 709.839L2180.86 683.319C2179.17 682.191 2178.04 680.497 2178.04 678.241V625.202C2178.04 622.941 2179.17 621.247 2180.86 620.124L2226.57 593.604V593.604Z" fill="#539E43"/>
<mask id="mask0_117_3" style="mask-type:alpha" maskUnits="userSpaceOnUse" x="655" y="349" width="533" height="607">
<path d="M936.106 353.231C931.722 350.735 926.764 349.422 921.719 349.422C916.674 349.422 911.715 350.735 907.331 353.231L669.779 490.337C660.747 495.414 655.67 505.007 655.67 515.162V789.96C655.67 800.115 661.314 809.708 669.779 814.786L907.331 951.901C911.715 954.397 916.674 955.71 921.719 955.71C926.764 955.71 931.722 954.397 936.106 951.901L1173.66 814.786C1182.69 809.708 1187.77 800.115 1187.77 789.96V515.167C1187.77 505.012 1182.12 495.419 1173.66 490.341L936.106 353.231Z" fill="white"/>
</mask>
<g mask="url(#mask0_117_3)">
<path d="M936.106 353.231C931.722 350.735 926.764 349.422 921.719 349.422C916.674 349.422 911.715 350.735 907.331 353.231L669.779 490.337C660.747 495.414 655.67 505.007 655.67 515.162V789.96C655.67 800.115 661.314 809.708 669.779 814.786L907.331 951.901C911.715 954.397 916.674 955.71 921.719 955.71C926.764 955.71 931.722 954.397 936.106 951.901L1173.66 814.786C1182.69 809.708 1187.77 800.115 1187.77 789.96V515.167C1187.77 505.012 1182.12 495.419 1173.66 490.341L936.106 353.231Z" fill="url(#paint0_linear_117_3)"/>
<path d="M1174.22 490.341L935.545 353.231C933.2 352.046 930.742 351.101 928.207 350.409L660.748 808.59C662.963 811.295 665.639 813.588 668.652 815.362L907.331 952.477C914.103 956.427 922.002 957.555 929.335 955.294L1180.43 495.99C1178.74 493.735 1176.48 492.036 1174.22 490.346V490.341Z" fill="url(#paint1_linear_117_3)"/>
<path fill-rule="evenodd" clip-rule="evenodd" d="M1174.79 814.791C1181.56 810.841 1186.64 804.069 1188.9 796.736L927.075 349.843C920.303 348.715 912.965 349.276 906.765 353.226L669.775 489.78L925.381 955.856C929.098 955.247 932.709 954.108 936.102 952.473L1174.79 814.796L1174.79 814.791Z" fill="url(#paint2_linear_117_3)"/>
<path fill-rule="evenodd" clip-rule="evenodd" d="M1174.79 814.791L936.673 951.906C933.311 953.62 929.688 954.764 925.952 955.29L930.468 963.755L1194.54 810.846V807.458L1187.77 796.17C1186.64 804.069 1181.56 810.841 1174.79 814.791V814.791Z" fill="url(#paint3_linear_117_3)"/>
<path fill-rule="evenodd" clip-rule="evenodd" d="M1174.79 814.791L936.673 951.906C933.311 953.62 929.688 954.764 925.952 955.29L930.468 963.755L1194.54 810.846V807.458L1187.77 796.17C1186.64 804.069 1181.56 810.841 1174.79 814.791V814.791Z" fill="url(#paint4_linear_117_3)"/>
</g>
<defs>
<linearGradient id="paint0_linear_117_3" x1="1018.5" y1="455.444" x2="758.12" y2="864.577" gradientUnits="userSpaceOnUse">
<stop stop-color="#41873F"/>
<stop offset="0.3288" stop-color="#418B3D"/>
<stop offset="0.6352" stop-color="#419637"/>
<stop offset="0.9319" stop-color="#3FA92D"/>
<stop offset="1" stop-color="#3FAE2A"/>
</linearGradient>
<linearGradient id="paint1_linear_117_3" x1="885.652" y1="684.754" x2="1537.76" y2="330.461" gradientUnits="userSpaceOnUse">
<stop offset="0.1376" stop-color="#41873F"/>
<stop offset="0.4032" stop-color="#54A044"/>
<stop offset="0.7136" stop-color="#66B848"/>
<stop offset="0.9081" stop-color="#6CC04A"/>
</linearGradient>
<linearGradient id="paint2_linear_117_3" x1="646.99" y1="652.574" x2="1196.68" y2="652.574" gradientUnits="userSpaceOnUse">
<stop offset="0.09192" stop-color="#6CC04A"/>
<stop offset="0.2864" stop-color="#66B848"/>
<stop offset="0.5968" stop-color="#54A044"/>
<stop offset="0.8624" stop-color="#41873F"/>
</linearGradient>
<linearGradient id="paint3_linear_117_3" x1="646.994" y1="880.423" x2="1196.68" y2="880.423" gradientUnits="userSpaceOnUse">
<stop offset="0.09192" stop-color="#6CC04A"/>
<stop offset="0.2864" stop-color="#66B848"/>
<stop offset="0.5968" stop-color="#54A044"/>
<stop offset="0.8624" stop-color="#41873F"/>
</linearGradient>
<linearGradient id="paint4_linear_117_3" x1="1276.76" y1="442.45" x2="1137.5" y2="1172.15" gradientUnits="userSpaceOnUse">
<stop stop-color="#41873F"/>
<stop offset="0.3288" stop-color="#418B3D"/>
<stop offset="0.6352" stop-color="#419637"/>
<stop offset="0.9319" stop-color="#3FA92D"/>
<stop offset="1" stop-color="#3FAE2A"/>
</linearGradient>
</defs>
</svg>
