<svg width="253" height="210" viewBox="0 0 253 210" fill="none" xmlns="http://www.w3.org/2000/svg">
<path d="M30.4837 97.5103C34.9518 97.5103 38.4189 98.6874 40.8849 101.042C43.3512 103.396 44.7204 106.07 44.9926 109.065H40.3324C39.8039 106.791 38.747 104.989 37.1615 103.66C35.5921 102.331 33.3821 101.666 30.5314 101.666C27.0563 101.666 24.2457 102.891 22.0997 105.342C19.9697 107.776 18.9048 111.515 18.9048 116.56C18.9048 120.691 19.8657 124.046 21.7874 126.625C23.7252 129.187 26.6077 130.468 30.4351 130.468C33.9583 130.468 36.6408 129.115 38.4826 126.408C39.4595 124.983 40.1881 123.109 40.6685 120.787H45.3288C44.9124 124.503 43.5351 127.617 41.197 130.132C38.3945 133.159 34.6151 134.672 29.8588 134.672C25.7591 134.672 22.316 133.431 19.5297 130.949C15.8625 127.666 14.029 122.597 14.029 115.743C14.029 110.539 15.4062 106.271 18.1607 102.939C21.1394 99.3202 25.2472 97.5106 30.4839 97.5106L30.4837 97.5103Z" fill="#121212"/>
<path d="M54.2894 122.371C54.4015 124.373 54.8739 125.998 55.7067 127.248C57.2921 129.586 60.0867 130.755 64.0904 130.755C65.884 130.755 67.5175 130.498 68.9908 129.986C71.8414 128.993 73.2667 127.215 73.2667 124.653C73.2667 122.731 72.6661 121.362 71.465 120.545C70.248 119.745 68.3422 119.048 65.7478 118.456L60.9675 117.375C57.8447 116.67 55.6347 115.893 54.3374 115.044C52.0954 113.571 50.9744 111.369 50.9744 108.438C50.9744 105.268 52.0714 102.665 54.2653 100.632C56.4593 98.5976 59.5662 97.5807 63.5859 97.5807C67.2851 97.5807 70.4241 98.4775 73.0027 100.271C75.5971 102.049 76.8943 104.899 76.8943 108.823H72.4022C72.162 106.933 71.6495 105.484 70.8648 104.475C69.4075 102.634 66.9333 101.713 63.4421 101.713C60.6235 101.713 58.5977 102.305 57.3647 103.49C56.1315 104.675 55.515 106.053 55.515 107.622C55.515 109.352 56.2356 110.617 57.677 111.418C58.6218 111.93 60.7597 112.571 64.0906 113.339L69.039 114.468C71.4252 115.013 73.2668 115.757 74.5638 116.702C76.8059 118.352 77.9269 120.746 77.9269 123.885C77.9269 127.793 76.5016 130.587 73.651 132.269C70.8164 133.95 67.5175 134.791 63.7542 134.791C59.3663 134.791 55.9311 133.67 53.4486 131.428C50.9664 129.202 49.7493 126.183 49.7973 122.372H54.2894V122.371Z" fill="#121212"/>
<path d="M87.0544 122.371C87.1665 124.373 87.6389 125.998 88.4717 127.248C90.0571 129.586 92.8517 130.755 96.8554 130.755C98.649 130.755 100.282 130.498 101.756 129.986C104.606 128.993 106.032 127.215 106.032 124.653C106.032 122.731 105.431 121.362 104.23 120.545C103.013 119.745 101.107 119.048 98.5128 118.456L93.7325 117.375C90.6097 116.67 88.3997 115.893 87.1024 115.044C84.8604 113.571 83.7394 111.369 83.7394 108.438C83.7394 105.268 84.8364 102.665 87.0304 100.632C89.2244 98.5976 92.3312 97.5807 96.351 97.5807C100.05 97.5807 103.189 98.4775 105.768 100.271C108.362 102.049 109.659 104.899 109.659 108.823H105.167C104.927 106.933 104.414 105.484 103.63 104.475C102.172 102.634 99.6982 101.713 96.2071 101.713C93.3885 101.713 91.3627 102.305 90.1297 103.49C88.8965 104.675 88.28 106.053 88.28 107.622C88.28 109.352 89.0006 110.617 90.442 111.418C91.3868 111.93 93.5247 112.571 96.8556 113.339L101.804 114.468C104.19 115.013 106.032 115.757 107.329 116.702C109.571 118.352 110.692 120.746 110.692 123.885C110.692 127.793 109.267 130.587 106.416 132.269C103.581 133.95 100.282 134.791 96.5192 134.791C92.1312 134.791 88.696 133.67 86.2136 131.428C83.7314 129.202 82.5143 126.183 82.5623 122.372H87.0544V122.371Z" fill="#121212"/>
<path d="M15.4912 159.963H22.3372L32.4745 189.798L42.5396 159.963H49.314V195.251H44.7738V174.424C44.7738 173.703 44.7898 172.51 44.8219 170.845C44.8539 169.179 44.8699 167.394 44.8699 165.488L34.8048 195.251H30.0725L19.9353 165.488V166.569C19.9353 167.434 19.9513 168.755 19.9833 170.532C20.0314 172.294 20.0554 173.591 20.0554 174.424V195.251H15.4913V159.963H15.4912Z" fill="#121212"/>
<path d="M71.869 159.006C78.0988 159.006 82.7109 161.008 85.7053 165.011C88.0434 168.134 89.2125 172.13 89.2125 176.999C89.2125 182.267 87.8753 186.647 85.2008 190.138C82.062 194.238 77.586 196.288 71.7729 196.288C66.3441 196.288 62.0762 194.494 58.9692 190.907C56.1986 187.448 54.8134 183.076 54.8134 177.791C54.8134 173.019 55.9985 168.935 58.3686 165.54C61.4114 161.184 65.9114 159.006 71.8687 159.006L71.869 159.006ZM72.3494 192.012C76.5614 192.012 79.6041 190.507 81.4776 187.496C83.3674 184.469 84.3122 180.994 84.3122 177.071C84.3122 172.923 83.2232 169.584 81.0452 167.054C78.8833 164.524 75.9205 163.258 72.157 163.258C68.5055 163.258 65.5268 164.516 63.2207 167.03C60.9146 169.528 59.7616 173.219 59.7616 178.104C59.7616 182.012 60.7465 185.311 62.7163 188.001C64.7021 190.675 67.913 192.012 72.349 192.012L72.3494 192.012Z" fill="#121212"/>
<path d="M108.433 191.17C110.051 191.17 111.38 191.002 112.421 190.665C114.278 190.041 115.8 188.84 116.985 187.062C117.93 185.637 118.61 183.811 119.027 181.585C119.267 180.256 119.387 179.023 119.387 177.886C119.387 173.514 118.514 170.119 116.769 167.7C115.038 165.284 112.243 164.076 108.383 164.076H99.9035V191.172H108.431L108.433 191.17ZM95.1008 159.966H109.394C114.246 159.966 118.009 161.687 120.684 165.13C123.07 168.237 124.263 172.217 124.263 177.069C124.263 180.816 123.558 184.204 122.149 187.23C119.667 192.579 115.399 195.254 109.345 195.254H95.1V159.966L95.1008 159.966Z" fill="#121212"/>
<path d="M135.622 159.963V181.774C135.622 184.337 136.103 186.467 137.064 188.164C138.489 190.726 140.891 192.007 144.27 192.007C148.322 192.007 151.077 190.622 152.534 187.852C153.319 186.346 153.711 184.32 153.711 181.774V159.963H158.563V179.781C158.563 184.121 157.979 187.46 156.81 189.798C154.664 194.057 150.612 196.187 144.655 196.187C138.697 196.187 134.654 194.057 132.524 189.798C131.355 187.46 130.771 184.121 130.771 179.781V159.963H135.623L135.622 159.963Z" fill="#121212"/>
<path d="M165.895 159.963H170.675V191.047H188.547V195.251H165.895V159.962L165.895 159.963Z" fill="#121212"/>
<path d="M193.735 159.963H219.462V164.287H198.395V175.001H217.877V179.084H198.395V191.047H219.822V195.251H193.734V159.963L193.735 159.963Z" fill="#121212"/>
<path d="M229.26 183.867C229.372 185.869 229.845 187.494 230.677 188.743C232.263 191.081 235.057 192.251 239.061 192.251C240.855 192.251 242.488 191.994 243.962 191.482C246.812 190.489 248.237 188.711 248.237 186.149C248.237 184.227 247.637 182.858 246.436 182.041C245.219 181.241 243.313 180.544 240.719 179.951L235.938 178.87C232.815 178.166 230.605 177.389 229.308 176.54C227.066 175.067 225.945 172.865 225.945 169.934C225.945 166.763 227.042 164.161 229.236 162.127C231.43 160.093 234.537 159.077 238.557 159.077C242.256 159.077 245.395 159.973 247.974 161.767C250.568 163.545 251.865 166.395 251.865 170.319H247.373C247.133 168.429 246.62 166.98 245.836 165.971C244.378 164.129 241.904 163.209 238.413 163.209C235.594 163.209 233.568 163.801 232.335 164.986C231.102 166.171 230.486 167.549 230.486 169.118C230.486 170.848 231.206 172.113 232.648 172.913C233.593 173.426 235.73 174.066 239.061 174.835L244.01 175.964C246.396 176.509 248.238 177.253 249.535 178.198C251.777 179.848 252.898 182.242 252.898 185.381C252.898 189.289 251.472 192.083 248.622 193.765C245.787 195.446 242.488 196.287 238.725 196.287C234.337 196.287 230.902 195.166 228.419 192.924C225.937 190.698 224.72 187.679 224.768 183.868H229.26V183.867Z" fill="#121212"/>
<path d="M207.312 3H3V207.312H207.312V3Z" stroke="#121212" stroke-width="5"/>
</svg>
