<svg width="250" height="73" viewBox="0 0 250 73" fill="none" xmlns="http://www.w3.org/2000/svg">
<g clip-path="url(#clip0_74_85)">
<path d="M1.62695 56.6377V28.7385H36.3652V27.1066H1.62695V1.65452H38.5615V0.0231018H0V58.2691H38.8867V56.6377H1.62744H1.62695ZM70.2085 16.3383L55.8091 35.3459L41.7344 16.3388H39.6191L54.8325 36.57L38.1543 58.2686H40.1069L55.8081 37.7926L71.5908 58.2686H73.6245L56.8657 36.569L72.1602 16.3378H70.208L70.2085 16.3383ZM78.5064 72.6268V46.5226H78.6689C79.6455 50.3294 81.5708 53.3885 84.4453 55.7001C87.3198 58.0111 90.9805 59.1671 95.4277 59.1671C98.3022 59.1671 100.852 58.5825 103.075 57.4132C105.299 56.244 107.156 54.6532 108.648 52.6409C110.139 50.6285 111.278 48.2901 112.065 45.6251C112.851 42.9606 113.245 40.1594 113.245 37.2232C113.245 34.0685 112.837 31.1587 112.024 28.4942C111.21 25.8292 110.031 23.5176 108.485 21.5601C106.939 19.6021 105.068 18.0789 102.872 16.992C100.675 15.904 98.1938 15.36 95.4277 15.36C93.3125 15.36 91.3467 15.6729 89.5298 16.2982C87.7129 16.9239 86.0996 17.8072 84.6895 18.9495C83.271 20.1005 82.0364 21.4622 81.0283 22.9874C79.998 24.5375 79.2114 26.237 78.6689 28.0863H78.5064V16.3383H76.8794V72.6268H78.5064V72.6268ZM95.4277 57.6164C90.3301 57.6164 86.2349 55.8626 83.1436 52.355C80.0522 48.8473 78.5064 43.8027 78.5064 37.2222C78.5064 34.5028 78.8862 31.9196 79.6455 29.4724C80.4048 27.0253 81.5029 24.8768 82.9399 23.028C84.3774 21.1787 86.1538 19.7103 88.2686 18.6229C90.3838 17.5349 92.7705 16.991 95.4277 16.991C98.1397 16.991 100.513 17.5349 102.546 18.6229C104.58 19.7103 106.262 21.1924 107.59 23.0687C108.919 24.9449 109.922 27.0934 110.601 29.5131C111.278 31.9333 111.617 34.5028 111.617 37.2222C111.617 39.6698 111.306 42.1037 110.682 44.5234C110.058 46.9436 109.095 49.119 107.793 51.0501C106.492 52.9802 104.825 54.5573 102.791 55.7813C100.756 57.0049 98.3022 57.6164 95.4277 57.6164V57.6164ZM122.193 58.2691V34.5302C122.193 32.2461 122.519 30.0159 123.17 27.841C123.82 25.6656 124.824 23.7483 126.18 22.0899C127.536 20.4311 129.257 19.1257 131.346 18.1739C133.434 17.2221 135.915 16.8279 138.79 16.991V15.3596C136.294 15.3057 134.112 15.5769 132.241 16.1753C130.369 16.7736 128.756 17.5893 127.4 18.6229C126.044 19.656 124.959 20.8658 124.146 22.2529C123.333 23.6378 122.73 25.1361 122.356 26.6987H122.193V16.3383H120.566V58.2696H122.193V58.2691ZM140.823 37.63H175.805C175.914 34.7476 175.629 31.9744 174.951 29.3094C174.273 26.6444 173.188 24.2785 171.697 22.2123C170.206 20.1456 168.28 18.4868 165.921 17.2358C163.562 15.9848 160.755 15.3596 157.501 15.3596C155.168 15.3596 152.891 15.8492 150.667 16.8284C148.443 17.8072 146.491 19.2344 144.81 21.1107C143.128 22.9869 141.772 25.2847 140.742 28.0045C139.712 30.7234 139.196 33.8232 139.196 37.3039C139.196 40.4037 139.549 43.2999 140.254 45.9918C140.959 48.6838 142.043 51.0227 143.508 53.0076C144.973 54.9925 146.857 56.529 149.162 57.6164C151.467 58.7044 154.247 59.2209 157.501 59.1666C162.273 59.1666 166.287 57.8201 169.541 55.1287C172.795 52.4362 174.721 48.6431 175.317 43.7484H173.69C172.985 48.3714 171.182 51.8384 168.28 54.1494C165.378 56.4609 161.731 57.6164 157.338 57.6164C154.355 57.6164 151.833 57.0999 149.772 56.0668C147.711 55.0337 146.03 53.6192 144.728 51.8247C143.427 50.0297 142.464 47.9224 141.84 45.5022C141.216 43.0825 140.877 40.4581 140.823 37.63ZM174.178 35.9986H140.824C140.986 33.0619 141.528 30.4243 142.45 28.0858C143.373 25.7469 144.579 23.7483 146.071 22.0899C147.562 20.4311 149.298 19.1669 151.277 18.2963C153.257 17.4262 155.386 16.991 157.664 16.991C160.375 16.991 162.761 17.4943 164.823 18.5005C166.883 19.5067 168.605 20.88 169.989 22.6202C171.372 24.3603 172.416 26.3863 173.121 28.6974C173.826 31.0089 174.178 33.4428 174.178 35.9986ZM209.567 28.7385H211.194C211.194 24.0611 209.838 20.6622 207.127 18.5411C204.415 16.4201 200.727 15.3596 196.063 15.3596C193.459 15.3596 191.263 15.6861 189.473 16.3388C187.683 16.991 186.219 17.8341 185.08 18.8672C183.941 19.9003 183.127 21.0426 182.639 22.2936C182.151 23.5446 181.907 24.7412 181.907 25.883C181.907 28.1671 182.313 29.989 183.127 31.3487C183.941 32.7084 185.215 33.7689 186.951 34.5302C188.144 35.0737 189.5 35.5633 191.019 35.9991C192.537 36.4339 194.3 36.8961 196.307 37.3852C198.096 37.821 199.859 38.2558 201.595 38.6906C203.33 39.1258 204.862 39.7104 206.191 40.4444C207.52 41.1788 208.604 42.1169 209.445 43.2592C210.286 44.401 210.706 45.8968 210.706 47.7456C210.706 49.5406 210.286 51.0633 209.445 52.3138C208.612 53.5583 207.514 54.603 206.232 55.3735C204.93 56.1618 203.479 56.7327 201.879 57.0862C200.279 57.4397 198.72 57.6164 197.202 57.6164C192.266 57.6164 188.483 56.5153 185.853 54.3129C183.222 52.1101 181.907 48.6431 181.907 43.9114H180.28C180.28 49.1871 181.704 53.0483 184.551 55.4959C187.398 57.943 191.615 59.1666 197.202 59.1666C198.991 59.1666 200.794 58.9624 202.612 58.5546C204.428 58.1467 206.056 57.4808 207.493 56.5559C208.917 55.6441 210.114 54.4162 210.991 52.967C211.886 51.4981 212.334 49.7036 212.334 47.5826C212.334 45.5703 211.94 43.9388 211.154 42.6878C210.367 41.4373 209.337 40.4038 208.062 39.588C206.788 38.7723 205.351 38.1334 203.75 37.6712C202.141 37.2062 200.528 36.7574 198.91 36.3247C196.918 35.8008 194.925 35.2843 192.93 34.775C191.222 34.3398 189.636 33.8232 188.171 33.2249C186.761 32.6266 185.636 31.7702 184.795 30.6554C183.954 29.5405 183.534 27.9497 183.534 25.883C183.534 25.5026 183.643 24.8225 183.859 23.8437C184.076 22.8645 184.592 21.872 185.405 20.8658C186.219 19.8602 187.466 18.9627 189.147 18.1739C190.829 17.3856 193.134 16.991 196.063 16.991C198.069 16.991 199.899 17.2089 201.554 17.6436C203.208 18.0789 204.632 18.7722 205.825 19.724C207.018 20.6759 207.94 21.8857 208.591 23.3541C209.242 24.823 209.567 26.6174 209.567 28.7385V28.7385ZM247.234 28.7385H248.861C248.861 24.0611 247.505 20.6622 244.793 18.5411C242.082 16.4201 238.394 15.3596 233.729 15.3596C231.126 15.3596 228.929 15.6861 227.14 16.3388C225.35 16.991 223.885 17.8341 222.747 18.8672C221.607 19.9003 220.794 21.0426 220.306 22.2936C219.817 23.5446 219.574 24.7412 219.574 25.883C219.574 28.1671 219.98 29.989 220.794 31.3487C221.607 32.7084 222.882 33.7689 224.618 34.5302C225.811 35.0737 227.166 35.5633 228.685 35.9991C230.204 36.4339 231.966 36.8961 233.973 37.3852C235.763 37.821 237.526 38.2558 239.261 38.6906C240.997 39.1258 242.529 39.7104 243.858 40.4444C245.187 41.1788 246.271 42.1169 247.112 43.2592C247.953 44.401 248.373 45.8968 248.373 47.7456C248.373 49.5406 247.953 51.0633 247.112 52.3138C246.278 53.5582 245.181 54.6029 243.899 55.3735C242.597 56.1618 241.146 56.7327 239.546 57.0862C237.946 57.4397 236.387 57.6164 234.868 57.6164C229.933 57.6164 226.15 56.5153 223.52 54.3129C220.889 52.1101 219.574 48.6431 219.574 43.9114H217.947C217.947 49.1871 219.37 53.0483 222.218 55.4959C225.065 57.943 229.282 59.1666 234.868 59.1666C236.658 59.1666 238.461 58.9624 240.278 58.5546C242.095 58.1467 243.722 57.4808 245.16 56.5559C246.584 55.6441 247.781 54.4162 248.658 52.967C249.553 51.4981 250 49.7036 250 47.5826C250 45.5703 249.607 43.9388 248.82 42.6878C248.034 41.4373 247.004 40.4038 245.729 39.588C244.455 38.7723 243.017 38.1334 241.417 37.6712C239.808 37.2062 238.195 36.7574 236.577 36.3247C234.585 35.8008 232.592 35.2843 230.597 34.775C228.889 34.3398 227.302 33.8232 225.838 33.2249C224.428 32.6266 223.302 31.7702 222.462 30.6554C221.621 29.5405 221.201 27.9497 221.201 25.883C221.201 25.5026 221.309 24.8225 221.526 23.8437C221.743 22.8645 222.259 21.872 223.072 20.8658C223.885 19.8602 225.133 18.9627 226.814 18.1739C228.496 17.3856 230.8 16.991 233.729 16.991C235.736 16.991 237.566 17.2089 239.221 17.6436C240.875 18.0789 242.298 18.7722 243.492 19.724C244.685 20.6759 245.607 21.8857 246.258 23.3541C246.909 24.823 247.234 26.6174 247.234 28.7385H247.234Z" fill="#121212"/>
</g>
<defs>
<clipPath id="clip0_74_85">
<rect width="250" height="73" fill="white"/>
</clipPath>
</defs>
</svg>
