<svg width="250" height="250" viewBox="0 0 250 250" fill="none" xmlns="http://www.w3.org/2000/svg">
<path d="M34.668 224.609L14.6484 0H234.863L214.844 224.609L124.512 250" fill="#121212"/>
<path d="M125 230.469L197.754 210.449L214.844 18.0664H125" fill="#121212"/>
<path d="M125 101.562H88.3789L85.9375 73.2422H125V45.8984H124.512H55.6641L56.1523 53.2227L62.9883 129.395H125V101.562ZM125 173.34H124.512L93.75 165.039L91.7969 143.066H77.1484H64.4531L67.8711 186.523L124.512 202.148H125V173.34Z" fill="white"/>
<path d="M124.512 101.562V129.395H158.691L155.273 165.039L124.512 173.34V202.148L181.152 186.523L181.641 181.641L187.988 108.887L188.965 101.562H181.152H124.512ZM124.512 45.8984V62.9883V73.2422H191.406L191.895 67.3828L193.359 53.2227L193.848 45.8984H124.512Z" fill="white"/>
</svg>
