<svg width="250" height="153" viewBox="0 0 250 153" fill="none" xmlns="http://www.w3.org/2000/svg">
<g clip-path="url(#clip0_74_62)">
<path d="M123.589 152.559C122.743 152.559 121.953 152.333 121.219 151.939L113.715 147.491C112.586 146.871 113.15 146.646 113.489 146.533C115.013 146.026 115.295 145.913 116.875 145.013C117.044 144.9 117.27 144.956 117.439 145.069L123.195 148.504C123.42 148.617 123.702 148.617 123.871 148.504L146.385 135.495C146.611 135.383 146.724 135.157 146.724 134.876V108.915C146.724 108.632 146.611 108.408 146.385 108.295L123.871 95.3424C123.646 95.2293 123.363 95.2293 123.195 95.3424L100.68 108.295C100.455 108.407 100.342 108.689 100.342 108.914V134.875C100.342 135.101 100.455 135.382 100.68 135.495L106.831 139.043C110.16 140.732 112.248 138.761 112.248 136.79V111.167C112.248 110.829 112.53 110.491 112.925 110.491H115.802C116.141 110.491 116.48 110.772 116.48 111.167V136.79C116.48 141.239 114.053 143.83 109.821 143.83C108.524 143.83 107.508 143.83 104.63 142.422L98.7056 139.043C97.2385 138.198 96.3358 136.621 96.3358 134.932V108.971C96.3358 107.281 97.2385 105.704 98.7056 104.86L121.219 91.8507C122.63 91.0623 124.549 91.0623 125.959 91.8507L148.473 104.86C149.94 105.704 150.843 107.281 150.843 108.971V134.932C150.843 136.621 149.94 138.198 148.473 139.043L125.959 152.052C125.226 152.39 124.379 152.559 123.59 152.559H123.589ZM130.53 134.707C120.655 134.707 118.624 130.202 118.624 126.372C118.624 126.034 118.906 125.696 119.301 125.696H122.235C122.574 125.696 122.856 125.921 122.856 126.26C123.307 129.244 124.605 130.708 130.586 130.708C135.326 130.708 137.358 129.638 137.358 127.104C137.358 125.64 136.793 124.57 129.401 123.838C123.251 123.218 119.414 121.867 119.414 116.968C119.414 112.406 123.251 109.702 129.683 109.702C136.906 109.702 140.461 112.181 140.912 117.586C140.912 117.756 140.856 117.924 140.743 118.094C140.63 118.206 140.461 118.319 140.291 118.319H137.357C137.075 118.319 136.793 118.094 136.737 117.812C136.06 114.715 134.31 113.701 129.683 113.701C124.492 113.701 123.871 115.503 123.871 116.854C123.871 118.488 124.605 118.995 131.602 119.895C138.542 120.797 141.815 122.092 141.815 126.935C141.758 131.891 137.696 134.707 130.53 134.707Z" fill="#121212"/>
<path d="M53.734 51.0221C53.734 50.0086 53.1697 49.0506 52.267 48.5439L28.3424 34.8031C27.9469 34.5775 27.4958 34.465 27.0447 34.4084H26.8187C26.3676 34.4084 25.916 34.5775 25.521 34.8031L1.59642 48.5439C0.693224 49.0506 0.129333 50.0081 0.129333 51.0221L0.185967 87.9648C0.185967 88.4715 0.468156 88.9783 0.919268 89.2039C1.37087 89.4855 1.93476 89.4855 2.33021 89.2039L16.5495 81.0944C17.4522 80.5876 18.0166 79.6302 18.0166 78.6167V61.3277C18.0166 60.3142 18.5805 59.3567 19.4837 58.8499L25.521 55.3582C25.9726 55.0766 26.4803 54.9635 26.9881 54.9635C27.4958 54.9635 28.0036 55.0766 28.399 55.3582L34.4363 58.8499C35.3395 59.3567 35.9034 60.3137 35.9034 61.3277V78.6167C35.9034 79.6302 36.4678 80.5876 37.3705 81.0944L51.5898 89.2039C52.0414 89.4855 52.6053 89.4855 53.0569 89.2039C53.5085 88.9783 53.7907 88.4715 53.7907 87.9648L53.734 51.0221ZM168.73 0.169079C168.279 -0.0565226 167.715 -0.0565226 167.319 0.169079C166.868 0.450716 166.586 0.900946 166.586 1.4077V38.0132C166.586 38.3509 166.417 38.6885 166.078 38.9141C165.74 39.0827 165.401 39.0827 165.063 38.9141L159.081 35.4789C158.643 35.2298 158.147 35.0987 157.642 35.0987C157.138 35.0987 156.642 35.2298 156.203 35.4789L132.279 49.2762C131.376 49.783 130.812 50.7405 130.812 51.754V79.292C130.812 80.3055 131.376 81.2635 132.279 81.7702L156.203 95.5675C156.642 95.8167 157.138 95.9477 157.642 95.9477C158.147 95.9477 158.643 95.8167 159.081 95.5675L183.006 81.7702C183.909 81.2635 184.473 80.306 184.473 79.292V10.6437C184.473 9.57371 183.909 8.61673 183.006 8.10949L168.731 0.169079H168.73ZM166.53 70.2255C166.53 70.5072 166.417 70.7323 166.191 70.8448L158.009 75.5752C157.895 75.6308 157.77 75.6597 157.642 75.6597C157.515 75.6597 157.39 75.6308 157.276 75.5752L149.094 70.8448C148.868 70.7323 148.755 70.4507 148.755 70.2255V60.7644C148.755 60.4828 148.868 60.2576 149.094 60.1451L157.276 55.4143C157.39 55.3586 157.515 55.3297 157.642 55.3297C157.77 55.3297 157.895 55.3586 158.009 55.4143L166.191 60.1451C166.417 60.2571 166.53 60.5393 166.53 60.7644V70.2255ZM248.347 60.5393C249.25 60.0325 249.758 59.0751 249.758 58.0611V51.3598C249.758 50.3463 249.193 49.3888 248.347 48.882L224.592 35.1413C224.153 34.8922 223.657 34.7612 223.153 34.7612C222.648 34.7612 222.153 34.8922 221.714 35.1413L197.79 48.9381C196.886 49.4448 196.323 50.4023 196.323 51.4163V78.9543C196.323 79.9678 196.886 80.9253 197.79 81.4321L221.545 94.9477C222.448 95.4545 223.52 95.4545 224.366 94.9477L238.754 86.9517C239.206 86.7261 239.488 86.2194 239.488 85.7126C239.488 85.2059 239.206 84.6991 238.754 84.4735L214.717 70.6763C214.266 70.3951 213.984 69.9444 213.984 69.4376V60.8214C213.984 60.3146 214.266 59.8079 214.717 59.5823L222.222 55.3022C222.442 55.1642 222.696 55.091 222.956 55.091C223.215 55.091 223.469 55.1642 223.689 55.3022L231.193 59.5823C231.645 59.8639 231.927 60.3142 231.927 60.8214V67.5792C231.927 68.086 232.209 68.5927 232.661 68.8178C233.112 69.0995 233.676 69.0995 234.128 68.8178L248.347 60.5393V60.5393Z" fill="#121212"/>
<path d="M222.786 59.2441C222.87 59.1891 222.968 59.1598 223.068 59.1598C223.169 59.1598 223.267 59.1891 223.35 59.2441L227.921 61.8909C228.09 62.003 228.203 62.1721 228.203 62.3977V67.6913C228.203 67.9164 228.09 68.0855 227.921 68.198L223.35 70.8448C223.267 70.8998 223.169 70.9292 223.068 70.9292C222.968 70.9292 222.87 70.8998 222.786 70.8448L218.216 68.198C218.046 68.0855 217.933 67.9164 217.933 67.6913V62.3977C217.933 62.1721 218.046 62.003 218.216 61.8909L222.786 59.2441V59.2441Z" fill="#121212"/>
<path d="M93.74 35.2538C93.3016 35.0047 92.8057 34.8737 92.3012 34.8737C91.7967 34.8737 91.3009 35.0047 90.8624 35.2538L67.1073 48.9376C66.2041 49.4443 65.6964 50.4018 65.6964 51.4153V78.8413C65.6964 79.8548 66.2607 80.8123 67.1073 81.319L90.8624 95.0037C91.3009 95.2528 91.7967 95.3838 92.3012 95.3838C92.8057 95.3838 93.3016 95.2528 93.74 95.0037L117.496 81.319C118.398 80.8123 118.907 79.8548 118.907 78.8413V51.4158C118.907 50.4023 118.342 49.4448 117.496 48.9381L93.74 35.2538Z" fill="#121212"/>
</g>
<defs>
<clipPath id="clip0_74_62">
<rect width="250" height="153" fill="white"/>
</clipPath>
</defs>
</svg>
