<svg width="251" height="251" viewBox="0 0 251 251" fill="none" xmlns="http://www.w3.org/2000/svg">
<path d="M224.581 48.7395C209.426 29.1144 188.791 14.4245 165.286 6.52761C141.782 -1.36931 116.463 -2.11852 92.533 4.37474C68.6026 10.868 47.1353 24.3121 30.846 43.0066C14.5568 61.7012 4.1773 84.8065 1.02032 109.4C-2.13666 133.994 2.07065 158.972 13.1102 181.175C24.1497 203.377 41.5255 221.807 63.04 234.134C84.5546 246.461 109.242 252.131 133.979 250.426C158.716 248.722 182.392 239.72 202.012 224.559C256.779 182.234 266.887 103.526 224.577 48.7395H224.581Z" fill="#121212"/>
<path d="M167.644 79.8761L114.784 133.155L99.8466 117.798C151.872 65.7729 157.094 70.474 167.648 79.8761H167.644Z" fill="#121212"/>
<path d="M114.784 134.612C114.316 134.6 113.869 134.415 113.531 134.091L98.4873 119.048C98.1486 118.697 97.9593 118.229 97.9593 117.741C97.9593 117.254 98.1486 116.785 98.4873 116.435C149.78 65.1422 156.78 67.5437 168.897 78.5128C169.1 78.6751 169.262 78.8825 169.371 79.1185C169.48 79.3544 169.532 79.6125 169.524 79.8722C169.602 80.3815 169.407 80.9025 169.003 81.2316L116.144 134.095C115.773 134.435 115.287 134.621 114.784 134.616V134.612ZM102.456 117.794L114.784 130.122L164.929 79.978C163.197 77.8082 160.727 76.3528 157.99 75.8903C155.253 75.4277 152.441 75.9904 150.093 77.4707C141.004 81.545 126.38 93.9753 102.456 117.794V117.794Z" fill="white"/>
<path d="M129.933 147.885L115.517 133.155L168.376 80.9181C182.585 94.8136 161.481 118.005 129.933 147.881V147.885Z" fill="#121212"/>
<path d="M129.933 149.765C129.471 149.728 129.032 149.546 128.68 149.244L113.95 134.827C113.729 134.292 113.729 133.69 113.95 133.155C113.793 132.715 113.793 132.235 113.95 131.795L166.809 78.9359C167.177 78.5905 167.662 78.3982 168.167 78.3982C168.671 78.3982 169.156 78.5905 169.524 78.9359C171.236 80.5114 172.588 82.4371 173.489 84.5821C174.391 86.727 174.819 89.0408 174.746 91.3662C174.746 105.469 158.657 123.228 131.289 149.138C130.923 149.5 130.442 149.722 129.929 149.765H129.933ZM118.232 133.155L130.035 144.954C150.927 125.21 170.883 104.839 170.985 91.0489C171.099 88.1255 170.133 85.2626 168.27 83.0062L118.232 133.155Z" fill="white"/>
<path d="M100.262 118.111L110.71 128.559C110.777 128.618 110.83 128.691 110.867 128.772C110.903 128.853 110.922 128.941 110.922 129.029C110.922 129.118 110.903 129.206 110.867 129.287C110.83 129.368 110.777 129.441 110.71 129.5L88.666 134.201C88.221 134.297 87.7568 134.245 87.3441 134.053C86.9314 133.86 86.5928 133.539 86.3799 133.136C86.167 132.734 86.0914 132.273 86.1646 131.824C86.2378 131.374 86.4559 130.961 86.7855 130.647L99.6351 117.904C99.6351 117.904 100.054 117.904 100.262 118.111Z" fill="#121212"/>
<path d="M88.1449 136.289C87.4485 136.28 86.7658 136.093 86.1623 135.745C85.5587 135.397 85.0544 134.901 84.6975 134.302C84.2958 133.545 84.1501 132.678 84.2821 131.83C84.4142 130.983 84.8169 130.201 85.4301 129.601L98.1738 116.752C98.6334 116.341 99.2283 116.114 99.8447 116.114C100.461 116.114 101.056 116.341 101.516 116.752L111.964 127.2C112.583 127.788 112.825 128.677 112.59 129.5C112.355 130.322 111.666 130.977 110.816 131.172L88.7717 135.873L88.1449 136.289ZM99.8466 120.411L88.0431 132.214L107.58 128.034L99.8466 120.411Z" fill="white"/>
<path d="M195.748 50.5181C188.187 43.2236 176.309 42.918 168.38 49.8011C160.451 56.6843 159.096 68.4996 165.27 77.0006C171.444 85.5017 183.083 87.8836 192.093 82.4852L177.884 68.2763L195.748 50.5181Z" fill="#121212"/>
<path d="M181.645 87.2881C177.301 87.2324 173.069 85.8997 169.478 83.4559C165.886 81.0122 163.093 77.5655 161.446 73.5454C159.801 69.5283 159.369 65.1169 160.204 60.857C161.04 56.5972 163.106 52.6757 166.147 49.5778C170.33 45.4721 175.956 43.1719 181.817 43.1719C187.678 43.1719 193.305 45.4721 197.487 49.5778C197.887 49.9147 198.114 50.4123 198.114 50.9372C198.113 51.1955 198.057 51.4505 197.949 51.6851C197.841 51.9196 197.683 52.1282 197.487 52.2966L180.564 68.2802L193.413 80.9221C193.621 81.1209 193.778 81.3677 193.869 81.6408C193.959 81.914 193.982 82.2052 193.934 82.4891C193.903 82.763 193.812 83.0267 193.668 83.2617C193.524 83.4966 193.33 83.6969 193.1 83.8485C189.648 86.0062 185.679 87.1968 181.61 87.2959L181.645 87.2881ZM181.645 46.7533C174.202 46.7925 167.542 51.2702 164.749 58.1142C161.955 64.9581 163.475 72.8363 168.694 78.0936C171.289 80.7042 174.612 82.4701 178.228 83.16C181.844 83.85 185.585 83.4318 188.959 81.9602L176.63 69.6317C176.434 69.475 176.276 69.2762 176.167 69.0501C176.059 68.8239 176.002 68.5762 176.002 68.3252C176.002 68.0743 176.059 67.8266 176.167 67.6004C176.276 67.3742 176.434 67.1754 176.63 67.0187L192.927 50.616C189.688 48.1332 185.726 46.7756 181.645 46.7494V46.7533Z" fill="white"/>
<path d="M196.061 50.8314L178.197 68.5897L192.406 82.7986C193.836 81.9776 195.168 80.9958 196.375 79.8722C200.099 75.9359 202.148 70.7068 202.089 65.2884C202.031 59.8701 199.87 54.6864 196.061 50.8314V50.8314Z" fill="#121212"/>
<path d="M192.089 84.3656C191.854 84.3783 191.62 84.3381 191.403 84.2479C191.186 84.1577 190.992 84.0199 190.835 83.8446L176.627 69.6357C176.431 69.4789 176.272 69.2801 176.164 69.054C176.055 68.8278 175.998 68.5801 175.998 68.3292C175.998 68.0782 176.055 67.8305 176.164 67.6043C176.272 67.3782 176.431 67.1794 176.627 67.0227L194.385 49.5778C194.556 49.3193 194.789 49.1071 195.063 48.9604C195.336 48.8137 195.641 48.7369 195.952 48.7369C196.262 48.7369 196.568 48.8137 196.841 48.9604C197.114 49.1071 197.347 49.3193 197.519 49.5778C199.604 51.6205 201.26 54.0586 202.39 56.7493C203.521 59.44 204.103 62.3294 204.103 65.248C204.103 68.1667 203.521 71.056 202.39 73.7467C201.26 76.4375 199.604 78.8755 197.519 80.9182C196.289 82.2225 194.882 83.3474 193.339 84.2598C192.95 84.4557 192.501 84.4936 192.085 84.3656H192.089ZM180.599 68.2802L192.402 80.0837C193.214 79.5146 193.983 78.8861 194.702 78.2033C198.172 74.7429 200.126 70.0466 200.136 65.1462C200.144 60.7606 198.545 56.524 195.642 53.2368L180.599 68.2802Z" fill="white"/>
<path d="M169.837 82.0699C168.422 80.7412 166.554 80.0016 164.613 80.0016C162.672 80.0016 160.804 80.7412 159.389 82.0699L112.069 129.284L119.904 137.225L169.943 93.3485C170.706 92.6172 171.312 91.7373 171.722 90.7632C172.132 89.7891 172.339 88.7414 172.329 87.6844C172.319 86.6275 172.093 85.5838 171.664 84.6175C171.236 83.6513 170.614 82.783 169.837 82.066V82.0699Z" fill="#121212"/>
<path d="M119.485 139.109C119.017 139.098 118.57 138.912 118.232 138.588L110.291 130.647C109.952 130.297 109.763 129.828 109.763 129.341C109.763 128.853 109.952 128.385 110.291 128.034L157.615 80.9181C158.978 79.5567 160.718 78.6362 162.611 78.276C164.504 77.9158 166.461 78.1325 168.229 78.898C169.996 79.6635 171.494 80.9425 172.526 82.5692C173.558 84.1958 174.078 86.0951 174.017 88.0206C173.963 89.3276 173.649 90.6107 173.092 91.7946C172.536 92.9785 171.749 94.0395 170.778 94.9155L120.739 138.792C120.375 139.05 119.928 139.161 119.485 139.105V139.109ZM113.95 129.284L119.172 134.612L168.27 91.8833C169.485 90.8256 170.21 89.3134 170.257 87.7033C170.304 86.0932 169.669 84.5184 168.482 83.4215C167.386 82.3299 165.902 81.717 164.355 81.717C162.808 81.717 161.324 82.3299 160.228 83.4215L113.95 129.284Z" fill="white"/>
<path d="M75.4012 183.088C75.2675 183.269 75.1954 183.489 75.1954 183.714C75.1954 183.94 75.2675 184.16 75.4012 184.341L77.4892 193.43C77.5729 193.965 77.4936 194.512 77.2616 195.002C77.0296 195.491 76.6557 195.899 76.1886 196.172C75.7232 196.444 75.1833 196.562 74.6469 196.508C74.1104 196.454 73.605 196.23 73.2034 195.871L58.8926 182.081L103.502 137.119H118.964L129.412 147.567C113.114 161.817 94.9417 173.768 75.4012 183.088V183.088Z" fill="#121212"/>
<path d="M74.461 198.444C73.2779 198.421 72.1104 197.935 71.3269 197.085L57.6429 183.401C57.447 183.244 57.2887 183.046 57.18 182.819C57.0713 182.593 57.0148 182.345 57.0148 182.095C57.0148 181.844 57.0713 181.596 57.18 181.37C57.2887 181.144 57.447 180.945 57.6429 180.788L102.561 135.764C102.813 135.496 103.142 135.314 103.502 135.243H119.066C119.472 135.099 119.914 135.099 120.32 135.243L130.768 145.691C130.966 145.874 131.118 146.103 131.208 146.357C131.299 146.612 131.327 146.884 131.289 147.152C131.296 147.412 131.243 147.669 131.135 147.905C131.026 148.141 130.864 148.348 130.662 148.511L129.828 149.244C113.464 162.886 95.4604 174.432 76.2356 183.613L78.2218 192.074C78.3753 192.727 78.3812 193.406 78.239 194.061C78.0968 194.717 77.8101 195.332 77.3998 195.862C76.9895 196.393 76.466 196.825 75.8674 197.127C75.2688 197.43 74.6103 197.595 73.9399 197.61L74.461 198.444ZM61.7172 182.042L74.0418 194.472C74.1566 194.574 74.3051 194.631 74.459 194.631C74.6129 194.631 74.7614 194.574 74.8762 194.472C74.953 194.365 74.9944 194.237 74.9944 194.106C74.9944 193.974 74.953 193.846 74.8762 193.739L72.7882 184.651C72.6236 183.998 72.6897 183.309 72.9753 182.7C73.261 182.091 73.7485 181.6 74.3552 181.309C93.0631 172.251 110.602 160.955 126.588 147.669L118.02 139.101H104.023L61.7172 182.042Z" fill="white"/>
<path d="M48.1351 192.803L58.5831 182.355L74.6725 198.444L49.0792 196.67C48.6398 196.635 48.2225 196.463 47.8868 196.177C47.5511 195.892 47.3143 195.507 47.2101 195.079C47.1058 194.651 47.1395 194.2 47.3063 193.792C47.4731 193.384 47.7646 193.04 48.139 192.807L48.1351 192.803Z" fill="#121212"/>
<path d="M74.982 200.011L49.4905 198.237C47.9784 198.096 46.6777 197.062 46.145 195.679C45.6122 194.296 45.9373 192.654 46.9833 191.55L57.4314 181.101C57.782 180.763 58.2504 180.573 58.7379 180.573C59.2254 180.573 59.6938 180.763 60.0444 181.101L76.028 197.085C76.2492 197.388 76.3685 197.754 76.3685 198.129C76.3685 198.504 76.2492 198.87 76.028 199.173C75.7863 199.564 75.4167 199.859 74.982 200.007V200.011ZM49.4905 194.163L70.3828 195.522L58.8926 184.76L49.4905 194.163Z" fill="white"/>
<path d="M120.425 138.381L99.3217 141.62L111.544 129.503L120.425 138.381Z" fill="white"/>
<path d="M99.3217 143.599C98.9709 143.608 98.6253 143.514 98.3278 143.328C98.0303 143.142 97.7942 142.872 97.6489 142.553C97.4265 142.25 97.3065 141.884 97.3065 141.509C97.3065 141.133 97.4265 140.767 97.6489 140.465L109.766 128.242C110.133 127.897 110.619 127.704 111.123 127.704C111.628 127.704 112.113 127.897 112.481 128.242L121.366 137.119C121.543 137.401 121.637 137.727 121.637 138.059C121.637 138.392 121.543 138.718 121.366 139C121.279 139.343 121.094 139.653 120.835 139.894C120.576 140.136 120.253 140.297 119.904 140.359L99.0122 143.599H99.3217ZM111.544 132.211L104.755 139L116.457 137.225L111.544 132.211Z" fill="white"/>
<path d="M120.425 138.373L105.696 140.253C105.301 140.343 104.889 140.303 104.519 140.139C104.149 139.976 103.842 139.698 103.643 139.346C103.444 138.994 103.363 138.588 103.413 138.187C103.463 137.786 103.641 137.411 103.921 137.119L111.548 129.492L120.425 138.373Z" fill="#121212"/>
<path d="M105.276 142.243C104.594 142.237 103.925 142.05 103.338 141.701C102.751 141.352 102.267 140.854 101.935 140.257C101.536 139.542 101.381 138.716 101.494 137.905C101.607 137.094 101.982 136.342 102.561 135.764L110.189 128.136C110.557 127.791 111.042 127.599 111.546 127.599C112.051 127.599 112.536 127.791 112.904 128.136L121.785 137.017C122.049 137.268 122.235 137.589 122.32 137.943C122.405 138.297 122.386 138.667 122.264 139.01C122.142 139.353 121.924 139.654 121.635 139.875C121.347 140.096 121 140.229 120.637 140.257L106.013 142.138L105.276 142.243ZM105.276 138.377L116.351 137.017L111.443 132.109L105.174 138.377H105.276ZM196.163 62.8466C195.967 62.5169 195.656 62.271 195.289 62.1554C194.923 62.0399 194.527 62.0628 194.177 62.2197C194.004 62.3074 193.851 62.4288 193.725 62.5768C193.6 62.7249 193.506 62.8965 193.448 63.0816C193.332 63.4551 193.369 63.8594 193.55 64.2059C194.283 65.7455 194.079 67.5672 193.029 68.907C192.899 69.036 192.797 69.1908 192.729 69.3614C192.662 69.532 192.631 69.7148 192.638 69.8981C192.641 70.2655 192.781 70.6186 193.029 70.8893C193.297 70.9951 193.596 70.9951 193.864 70.8893C194.107 70.9504 194.362 70.9437 194.602 70.8698C194.842 70.7959 195.057 70.6576 195.223 70.4701C196.083 69.4169 196.628 68.1418 196.794 66.7921C196.961 65.4424 196.742 64.0732 196.163 62.8426V62.8466Z" fill="white"/>
</svg>
