<svg width="250" height="223" viewBox="0 0 250 223" fill="none" xmlns="http://www.w3.org/2000/svg">
<g clip-path="url(#clip0_74_6)">
<path d="M205.549 72.2049C202.888 71.2907 200.205 70.4437 197.502 69.6648C197.956 67.8065 198.374 65.9707 198.745 64.1671C204.837 34.5502 200.854 10.6901 187.252 2.83428C174.21 -4.69686 152.881 3.15606 131.34 21.9321C129.217 23.7858 127.141 25.693 125.115 27.6518C123.758 26.3493 122.377 25.072 120.973 23.8207C98.397 3.74486 75.7682 -4.71643 62.1804 3.16193C49.1502 10.7165 45.2918 33.1466 50.7761 61.2153C51.3218 63.9952 51.9378 66.7608 52.6238 69.5093C49.4207 70.4209 46.3299 71.3911 43.3719 72.424C16.9032 81.6667 0 96.151 0 111.175C0 126.692 18.1464 142.256 45.7146 151.694C47.9496 152.456 50.2032 153.162 52.4734 153.811C51.7361 156.771 51.0815 159.752 50.5105 162.749C45.282 190.33 49.365 212.23 62.36 219.737C75.7819 227.489 98.3091 219.522 120.244 200.317C122.022 198.756 123.762 197.151 125.46 195.502C127.655 197.623 129.909 199.683 132.218 201.678C153.466 219.989 174.45 227.384 187.433 219.856C200.842 212.082 205.2 188.555 199.542 159.932C199.096 157.69 198.596 155.458 198.043 153.24C199.625 152.77 201.178 152.287 202.691 151.785C231.351 142.275 249.999 126.9 249.999 111.175C249.999 96.0962 232.55 81.5142 205.549 72.2049V72.2049ZM199.333 141.632C197.966 142.085 196.563 142.522 195.134 142.948C191.97 132.916 187.7 122.249 182.475 111.227C187.461 100.468 191.566 89.9373 194.642 79.9708C197.199 80.7121 199.681 81.4936 202.073 82.3181C225.208 90.2953 239.319 102.088 239.319 111.175C239.319 120.854 224.079 133.419 199.333 141.632V141.632ZM189.065 162.009C191.567 174.666 191.924 186.109 190.267 195.055C188.778 203.094 185.784 208.453 182.081 210.6C174.203 215.167 157.355 209.231 139.184 193.57C137.036 191.715 134.94 189.8 132.898 187.828C139.943 180.112 146.983 171.143 153.854 161.18C165.94 160.106 177.358 158.349 187.712 155.952C188.211 157.96 188.662 159.98 189.065 162.009V162.009ZM85.2301 209.811C77.5328 212.533 71.402 212.611 67.696 210.471C59.8103 205.916 56.5319 188.331 61.0036 164.744C61.5352 161.957 62.1438 159.185 62.8288 156.431C73.069 158.701 84.4039 160.332 96.5181 161.316C103.436 171.064 110.679 180.024 117.979 187.87C116.428 189.374 114.84 190.839 113.216 192.264C103.516 200.756 93.7964 206.781 85.2301 209.811V209.811ZM49.1697 141.573C36.9793 137.399 26.912 131.976 20.0116 126.057C13.8105 120.74 10.6806 115.459 10.6806 111.175C10.6806 102.058 24.2518 90.4283 46.8875 82.5245C49.6345 81.566 52.5095 80.6613 55.4929 79.8123C58.6218 90.0038 62.7253 100.66 67.6774 111.435C62.6608 122.37 58.4987 133.196 55.3396 143.508C53.2674 142.914 51.2102 142.268 49.1697 141.573V141.573ZM61.2575 59.1604C56.5593 35.1126 59.6794 16.9723 67.5319 12.4194C75.8951 7.57009 94.3892 14.4841 113.882 31.8194C115.153 32.9524 116.404 34.1083 117.633 35.2866C110.37 43.0985 103.193 51.9921 96.3364 61.6828C84.5787 62.7743 73.3239 64.527 62.9763 66.8754C62.3387 64.3189 61.7656 61.7467 61.2575 59.1613V59.1604ZM169.096 85.8304C166.652 81.6021 164.117 77.4271 161.493 73.3082C169.47 74.3185 177.112 75.6594 184.289 77.2987C182.135 84.2156 179.449 91.4465 176.288 98.8602C173.978 94.4694 171.58 90.1253 169.096 85.8304V85.8304ZM125.12 42.9312C130.045 48.2764 134.979 54.2436 139.831 60.7184C129.988 60.2528 120.128 60.2509 110.284 60.7126C115.141 54.2974 120.117 48.338 125.12 42.9312ZM80.8609 85.9037C78.4082 90.1641 76.055 94.4811 73.8033 98.8514C70.694 91.4641 68.0329 84.1999 65.86 77.1852C72.9928 75.5871 80.5992 74.2804 88.525 73.2886C85.8721 77.4327 83.3167 81.6385 80.8609 85.9028V85.9037ZM88.7525 149.823C80.5641 148.907 72.8434 147.668 65.7126 146.113C67.9196 138.973 70.6393 131.554 73.816 124.008C76.0766 128.382 78.4396 132.702 80.9029 136.964C83.4361 141.346 86.0592 145.637 88.7525 149.823ZM125.414 180.172C120.352 174.703 115.303 168.651 110.373 162.143C115.16 162.331 120.039 162.427 124.999 162.427C130.095 162.427 135.132 162.313 140.09 162.092C135.222 168.717 130.307 174.777 125.414 180.172ZM176.389 123.623C179.731 131.252 182.547 138.632 184.783 145.649C177.535 147.306 169.709 148.64 161.463 149.631C164.105 145.435 166.664 141.188 169.138 136.891C171.653 132.522 174.07 128.099 176.389 123.623V123.623ZM159.887 131.546C156.1 138.135 152.1 144.599 147.894 150.927C140.274 151.467 132.638 151.736 124.999 151.732C117.219 151.732 109.652 151.489 102.365 151.016C98.0486 144.702 93.9724 138.227 90.1451 131.605H90.146C86.3367 125.018 82.7785 118.288 79.4791 111.43C82.7701 104.571 86.3175 97.8382 90.1138 91.246L90.1128 91.2469C93.9077 84.653 97.9513 78.2058 102.235 71.9193C109.669 71.3559 117.293 71.0625 124.998 71.0625H124.999C132.74 71.0625 140.373 71.3589 147.806 71.9261C152.046 78.2033 156.064 84.6283 159.852 91.1892C163.661 97.7669 167.255 104.467 170.629 111.279C167.29 118.16 163.707 124.92 159.887 131.546V131.546ZM181.918 12.1005C190.289 16.9361 193.545 36.4359 188.285 62.0075C187.949 63.6389 187.572 65.3007 187.162 66.9859C176.789 64.5877 165.527 62.8047 153.735 61.6965C146.865 51.8992 139.747 42.9919 132.602 35.2808C134.475 33.4728 136.392 31.7118 138.352 29.9992C156.809 13.9129 174.059 7.56129 181.918 12.1005V12.1005ZM124.999 88.8164C137.328 88.8164 147.323 98.827 147.323 111.175C147.323 123.523 137.328 133.534 124.999 133.534C112.67 133.534 102.675 123.523 102.675 111.175C102.675 98.827 112.67 88.8164 124.999 88.8164V88.8164Z" fill="#121212"/>
</g>
<defs>
<clipPath id="clip0_74_6">
<rect width="250" height="223" fill="white"/>
</clipPath>
</defs>
</svg>
