<svg width="250" height="238" viewBox="0 0 250 238" fill="none" xmlns="http://www.w3.org/2000/svg">
<g clip-path="url(#clip0_74_40)">
<path d="M173.224 165.556C182.449 164.602 189.448 156.659 189.13 147.126C188.812 137.594 180.858 129.968 171.314 129.968H170.679C160.815 130.286 153.181 138.547 153.499 148.397C153.817 153.163 155.726 157.294 158.589 160.153C147.772 181.443 131.229 197.012 106.415 210.04C89.5537 218.937 72.0566 222.114 54.5596 219.89C40.2432 217.984 29.1084 211.629 22.1084 201.143C11.9287 185.573 10.9746 168.732 19.5644 151.892C25.6094 139.818 35.1523 130.921 41.1973 126.472C39.9248 122.342 38.0156 115.351 37.0615 110.268C-9.06837 143.631 -4.29591 188.751 9.70214 210.04C20.2002 225.928 41.5156 235.778 65.0576 235.778C71.4199 235.778 77.7822 235.142 84.1455 233.554C124.867 225.61 155.727 201.461 173.224 165.556V165.556ZM229.216 126.155C205.037 97.8753 169.406 82.306 128.685 82.306H123.595C120.731 76.5867 114.687 72.7731 108.006 72.7731H107.369C97.5078 73.0911 89.873 81.3522 90.1904 91.203C90.5088 100.735 98.4619 108.361 108.006 108.361H108.642C115.641 108.043 121.686 103.595 124.23 97.5573H129.957C154.136 97.5573 177.041 104.548 197.721 118.211C213.627 128.697 225.08 142.36 231.442 158.882C236.851 172.228 236.532 185.255 230.806 196.377C221.898 213.217 206.946 222.432 187.222 222.432C174.496 222.432 162.407 218.619 156.044 215.759C152.545 218.937 146.182 224.02 141.728 227.199C155.408 233.553 169.406 237.048 182.768 237.048C213.309 237.048 235.896 220.207 244.486 203.367C253.712 184.937 253.075 153.163 229.216 126.155V126.155ZM67.6025 170.956C67.9209 180.489 75.874 188.114 85.418 188.114H86.0547C95.917 187.797 103.552 179.535 103.233 169.685C102.916 160.152 94.9619 152.527 85.418 152.527H84.7822C84.1455 152.527 83.1904 152.527 82.5557 152.844C69.5117 131.238 64.1035 107.725 66.0127 82.3051C67.2842 63.2402 73.6474 46.7171 84.7822 33.0537C94.0078 21.297 111.823 15.5776 123.913 15.2607C157.635 14.6247 171.95 56.567 172.905 73.4081C177.041 74.361 184.04 76.5857 188.812 78.1745C184.994 26.7003 153.181 0.0093689 122.641 0.0093689C94.0078 0.0093689 67.6025 20.663 57.1035 51.1666C42.4697 91.838 52.0137 130.921 69.8291 161.742C68.2392 163.966 67.2842 167.461 67.6025 170.957V170.956Z" fill="#121212"/>
</g>
<defs>
<clipPath id="clip0_74_40">
<rect width="250" height="238" fill="white"/>
</clipPath>
</defs>
</svg>
