<svg width="460" height="401" viewBox="0 0 460 401" fill="none" xmlns="http://www.w3.org/2000/svg">
<g clip-path="url(#clip0_37_10)">
<path d="M414.754 208.687C414.814 258.306 395.651 306.017 361.292 341.789C359.221 343.959 357.094 346.078 354.911 348.143C351.584 351.31 348.146 354.354 344.597 357.275C311.391 384.656 269.937 400.042 226.922 400.951C225.489 400.984 224.05 401 222.606 401C188.301 401 145.153 382.661 105.997 357.275C102.757 355.175 99.5467 353.026 96.3647 350.828C94.8775 349.811 93.3974 348.779 91.9245 347.732C76.8224 337.059 62.4875 325.339 49.0255 312.657C40.2115 304.378 31.9462 295.533 24.2824 286.177C-5.80423 249.034 -12.4403 215.567 30.4533 208.687C35.5317 207.875 40.4605 207.007 45.2397 206.083C52.1624 204.752 58.7876 203.314 65.1154 201.769C73.6389 199.696 81.6469 197.448 89.1392 195.025C91.6595 194.213 94.1221 193.385 96.527 192.54C132.081 180.042 155.878 163.744 172.076 146.06C174.824 143.067 177.356 140.037 179.675 136.972C183.222 132.306 186.444 127.401 189.318 122.292C193.285 115.194 196.617 107.758 199.275 100.073L199.421 99.6503C212.309 62.4424 208.388 27.93 222.606 16.379C283.385 -33.0024 359.053 37.3213 394.57 120.252C396.36 124.43 398.044 128.634 399.621 132.864C400.33 134.753 401.013 136.645 401.671 138.542C403.402 143.484 404.972 148.438 406.382 153.405C406.923 155.3 407.438 157.193 407.929 159.083C408.453 161.124 408.956 163.159 409.421 165.195C412.877 180.096 414.754 194.792 414.754 208.687Z" fill="#F2F2F2"/>
<path d="M226.922 400.951C225.489 400.984 224.05 401 222.606 401C188.301 401 145.153 382.661 105.997 357.275C102.757 355.175 99.5467 353.026 96.3647 350.828L99.1555 333.832L183.639 322.606L226.041 355.056L226.922 400.951Z" fill="#2F2E41"/>
<path d="M230.989 97.4582H218.95C218.577 97.4584 218.22 97.6067 217.956 97.8705C217.692 98.1344 217.544 98.4923 217.544 98.8655V110.92C217.544 111.104 217.581 111.287 217.652 111.457C217.722 111.628 217.826 111.782 217.957 111.913C218.087 112.043 218.242 112.146 218.413 112.216C218.583 112.286 218.766 112.322 218.95 112.322H230.989C231.361 112.322 231.718 112.174 231.982 111.912C232.245 111.649 232.394 111.292 232.395 110.92V98.8655C232.394 98.4925 232.246 98.1352 231.982 97.8715C231.719 97.6079 231.362 97.4593 230.989 97.4582Z" fill="white"/>
<path d="M230.989 118H218.95C218.577 118 218.22 118.148 217.956 118.412C217.692 118.676 217.544 119.034 217.544 119.407V131.462C217.544 131.646 217.581 131.829 217.652 131.999C217.722 132.17 217.826 132.324 217.957 132.454C218.087 132.585 218.242 132.688 218.413 132.758C218.583 132.828 218.766 132.864 218.95 132.864H230.989C231.361 132.864 231.718 132.716 231.982 132.453C232.245 132.191 232.394 131.834 232.395 131.462V119.407C232.394 119.034 232.246 118.677 231.982 118.413C231.719 118.15 231.362 118.001 230.989 118Z" fill="#E6E6E6"/>
<path d="M230.989 138.542H218.95C218.577 138.542 218.22 138.69 217.956 138.954C217.692 139.218 217.544 139.576 217.544 139.949V151.998C217.544 152.183 217.58 152.366 217.65 152.537C217.721 152.708 217.824 152.863 217.955 152.994C218.086 153.125 218.241 153.228 218.412 153.299C218.582 153.37 218.765 153.406 218.95 153.405H230.989C231.362 153.405 231.72 153.257 231.983 152.993C232.247 152.729 232.395 152.371 232.395 151.998V139.949C232.394 139.576 232.246 139.219 231.982 138.955C231.719 138.691 231.362 138.543 230.989 138.542Z" fill="#E6E6E6"/>
<path d="M232.374 160.242C232.314 159.918 232.143 159.625 231.89 159.413C231.637 159.202 231.319 159.085 230.989 159.083H218.95C218.577 159.084 218.22 159.232 217.956 159.496C217.692 159.76 217.544 160.118 217.544 160.491V172.54C217.544 172.725 217.58 172.908 217.65 173.079C217.721 173.25 217.824 173.405 217.955 173.536C218.086 173.667 218.241 173.77 218.412 173.841C218.582 173.911 218.765 173.948 218.95 173.947H230.989C231.362 173.947 231.72 173.799 231.983 173.535C232.247 173.271 232.395 172.913 232.395 172.54V160.491C232.396 160.407 232.389 160.324 232.374 160.242Z" fill="#E6E6E6"/>
<path d="M231.535 179.734C231.362 179.662 231.177 179.625 230.989 179.625H218.95C218.766 179.625 218.583 179.661 218.412 179.732C218.241 179.802 218.086 179.906 217.955 180.037C217.825 180.167 217.721 180.323 217.65 180.494C217.58 180.664 217.544 180.848 217.544 181.033V193.082C217.543 193.267 217.579 193.45 217.65 193.621C217.72 193.792 217.823 193.948 217.954 194.079C218.085 194.209 218.24 194.313 218.411 194.384C218.582 194.454 218.765 194.49 218.95 194.489H230.989C231.362 194.489 231.72 194.34 231.983 194.077C232.247 193.813 232.395 193.455 232.395 193.082V181.033C232.395 180.756 232.313 180.485 232.16 180.254C232.007 180.023 231.79 179.842 231.535 179.734Z" fill="#E6E6E6"/>
<path d="M256.279 97.4582H244.24C243.867 97.4584 243.509 97.6067 243.246 97.8705C242.982 98.1344 242.834 98.4923 242.833 98.8655V110.92C242.834 111.104 242.87 111.287 242.941 111.457C243.012 111.628 243.115 111.782 243.246 111.913C243.377 112.043 243.532 112.146 243.702 112.216C243.873 112.286 244.055 112.322 244.24 112.322H256.279C256.651 112.322 257.008 112.174 257.271 111.912C257.535 111.649 257.683 111.292 257.685 110.92V98.8655C257.684 98.4925 257.535 98.1352 257.272 97.8715C257.008 97.6079 256.651 97.4593 256.279 97.4582Z" fill="#E6E6E6"/>
<path d="M256.279 118H244.24C243.867 118 243.509 118.148 243.245 118.412C242.982 118.676 242.834 119.034 242.833 119.407V131.462C242.834 131.646 242.87 131.829 242.941 131.999C243.012 132.17 243.115 132.324 243.246 132.454C243.377 132.585 243.532 132.688 243.702 132.758C243.873 132.828 244.055 132.864 244.24 132.864H256.279C256.651 132.864 257.008 132.716 257.271 132.453C257.535 132.191 257.683 131.834 257.685 131.462V119.407C257.684 119.034 257.535 118.677 257.272 118.413C257.008 118.15 256.651 118.001 256.279 118Z" fill="#1098F7"/>
<path d="M256.279 138.542H244.24C243.867 138.542 243.509 138.69 243.245 138.954C242.982 139.218 242.834 139.576 242.833 139.949V151.998C242.833 152.183 242.869 152.366 242.94 152.537C243.01 152.708 243.114 152.863 243.245 152.994C243.375 153.125 243.53 153.228 243.701 153.299C243.872 153.37 244.055 153.406 244.24 153.405H256.279C256.651 153.405 257.009 153.257 257.273 152.993C257.536 152.729 257.685 152.371 257.685 151.998V139.949C257.684 139.576 257.535 139.219 257.272 138.955C257.008 138.691 256.651 138.543 256.279 138.542Z" fill="#1098F7"/>
<path d="M256.279 159.083H244.24C243.945 159.084 243.658 159.177 243.419 159.35C243.18 159.523 243.002 159.767 242.909 160.047C242.859 160.19 242.834 160.34 242.833 160.491V172.54C242.833 172.725 242.869 172.908 242.94 173.079C243.01 173.25 243.114 173.405 243.244 173.536C243.375 173.667 243.53 173.77 243.701 173.841C243.872 173.911 244.055 173.948 244.24 173.947H256.279C256.651 173.947 257.009 173.799 257.273 173.535C257.536 173.271 257.685 172.913 257.685 172.54V160.491C257.684 160.118 257.535 159.761 257.272 159.497C257.008 159.233 256.651 159.085 256.279 159.083Z" fill="#1098F7"/>
<path d="M256.279 179.625H244.24C244.055 179.625 243.872 179.661 243.701 179.732C243.53 179.802 243.375 179.906 243.245 180.037C243.114 180.167 243.01 180.323 242.94 180.494C242.869 180.664 242.833 180.848 242.833 181.033V193.082C242.833 193.266 242.869 193.45 242.94 193.621C243.01 193.791 243.114 193.947 243.245 194.078C243.375 194.208 243.53 194.312 243.701 194.383C243.872 194.453 244.055 194.489 244.24 194.489H256.279C256.651 194.489 257.009 194.34 257.273 194.077C257.536 193.813 257.685 193.455 257.685 193.082V181.033C257.685 180.659 257.536 180.301 257.273 180.038C257.009 179.774 256.651 179.625 256.279 179.625Z" fill="#E6E6E6"/>
<path d="M281.568 97.4582H269.529C269.156 97.4584 268.799 97.6067 268.535 97.8705C268.271 98.1344 268.123 98.4923 268.123 98.8655V110.92C268.123 111.104 268.16 111.287 268.23 111.457C268.301 111.628 268.405 111.782 268.535 111.913C268.666 112.043 268.821 112.146 268.992 112.216C269.162 112.286 269.345 112.322 269.529 112.322H281.568C281.94 112.322 282.297 112.174 282.561 111.912C282.824 111.649 282.973 111.292 282.974 110.92V98.8655C282.973 98.4925 282.825 98.1352 282.561 97.8715C282.298 97.6079 281.941 97.4593 281.568 97.4582Z" fill="#1098F7"/>
<path d="M281.568 118H269.529C269.156 118 268.799 118.148 268.535 118.412C268.271 118.676 268.123 119.034 268.123 119.407V131.462C268.123 131.646 268.16 131.829 268.23 131.999C268.301 132.17 268.405 132.324 268.535 132.454C268.666 132.585 268.821 132.688 268.992 132.758C269.162 132.828 269.345 132.864 269.529 132.864H281.568C281.94 132.864 282.297 132.716 282.561 132.453C282.824 132.191 282.973 131.834 282.974 131.462V119.407C282.973 119.034 282.825 118.677 282.561 118.413C282.298 118.15 281.941 118.001 281.568 118Z" fill="#1098F7"/>
<path d="M281.568 138.542H269.529C269.156 138.542 268.799 138.69 268.535 138.954C268.271 139.218 268.123 139.576 268.123 139.949V151.998C268.123 152.183 268.159 152.366 268.229 152.537C268.3 152.708 268.403 152.863 268.534 152.994C268.665 153.125 268.82 153.228 268.99 153.299C269.161 153.37 269.344 153.406 269.529 153.405H281.568C281.941 153.405 282.298 153.257 282.562 152.993C282.826 152.729 282.974 152.371 282.974 151.998V139.949C282.973 139.576 282.825 139.219 282.561 138.955C282.298 138.691 281.941 138.543 281.568 138.542Z" fill="#E6E6E6"/>
<path d="M281.568 159.083H269.529C269.156 159.084 268.799 159.232 268.535 159.496C268.271 159.76 268.123 160.118 268.123 160.491V172.54C268.123 172.725 268.159 172.908 268.229 173.079C268.3 173.25 268.403 173.405 268.534 173.536C268.665 173.667 268.82 173.77 268.99 173.841C269.161 173.911 269.344 173.948 269.529 173.947H281.568C281.941 173.947 282.298 173.799 282.562 173.535C282.826 173.271 282.974 172.913 282.974 172.54V160.491C282.973 160.118 282.825 159.761 282.561 159.497C282.298 159.233 281.941 159.085 281.568 159.083Z" fill="#1098F7"/>
<path d="M281.568 179.625H269.529C269.344 179.625 269.161 179.661 268.99 179.732C268.82 179.802 268.665 179.906 268.534 180.037C268.403 180.167 268.3 180.323 268.229 180.494C268.159 180.664 268.123 180.848 268.123 181.033V193.082C268.123 193.266 268.159 193.45 268.229 193.621C268.3 193.791 268.403 193.947 268.534 194.078C268.665 194.208 268.82 194.312 268.99 194.383C269.161 194.453 269.344 194.489 269.529 194.489H281.568C281.941 194.489 282.298 194.34 282.562 194.077C282.826 193.813 282.974 193.455 282.974 193.082V181.033C282.974 180.659 282.826 180.301 282.562 180.038C282.298 179.774 281.941 179.625 281.568 179.625Z" fill="#1098F7"/>
<path d="M306.857 97.4582H294.818C294.446 97.4584 294.088 97.6067 293.824 97.8705C293.561 98.1344 293.412 98.4923 293.412 98.8655V110.92C293.412 111.104 293.449 111.287 293.52 111.457C293.591 111.628 293.694 111.782 293.825 111.913C293.955 112.043 294.11 112.146 294.281 112.216C294.451 112.286 294.634 112.322 294.818 112.322H306.857C307.229 112.322 307.586 112.174 307.85 111.912C308.114 111.649 308.262 111.292 308.264 110.92V98.8655C308.262 98.4925 308.114 98.1352 307.85 97.8715C307.587 97.6079 307.23 97.4593 306.857 97.4582Z" fill="#1098F7"/>
<path d="M306.857 118H294.818C294.445 118 294.088 118.148 293.824 118.412C293.561 118.676 293.412 119.034 293.412 119.407V131.462C293.412 131.646 293.449 131.829 293.52 131.999C293.591 132.17 293.694 132.324 293.825 132.454C293.955 132.585 294.11 132.688 294.281 132.758C294.451 132.828 294.634 132.864 294.818 132.864H306.857C307.229 132.864 307.586 132.716 307.85 132.453C308.114 132.191 308.262 131.834 308.264 131.462V119.407C308.262 119.034 308.114 118.677 307.85 118.413C307.587 118.15 307.23 118.001 306.857 118Z" fill="white"/>
<path d="M306.857 138.542H294.818C294.445 138.542 294.088 138.69 293.824 138.954C293.561 139.218 293.412 139.576 293.412 139.949V151.998C293.412 152.183 293.448 152.366 293.519 152.537C293.589 152.708 293.693 152.863 293.823 152.994C293.954 153.125 294.109 153.228 294.28 153.299C294.451 153.37 294.634 153.406 294.818 153.405H306.857C307.23 153.405 307.588 153.257 307.851 152.993C308.115 152.729 308.263 152.371 308.264 151.998V139.949C308.262 139.576 308.114 139.219 307.85 138.955C307.587 138.691 307.23 138.543 306.857 138.542Z" fill="white"/>
<path d="M306.857 159.083H294.818C294.446 159.084 294.088 159.232 293.824 159.496C293.561 159.76 293.412 160.118 293.412 160.491V172.54C293.412 172.725 293.448 172.908 293.519 173.079C293.589 173.25 293.693 173.405 293.823 173.536C293.954 173.667 294.109 173.77 294.28 173.841C294.451 173.911 294.634 173.948 294.818 173.947H306.857C307.23 173.947 307.588 173.799 307.851 173.535C308.115 173.271 308.263 172.913 308.264 172.54V160.491C308.262 160.118 308.114 159.761 307.85 159.497C307.587 159.233 307.23 159.085 306.857 159.083Z" fill="#E6E6E6"/>
<path d="M306.857 179.625H294.818C294.634 179.625 294.451 179.661 294.28 179.732C294.109 179.802 293.954 179.906 293.823 180.037C293.693 180.167 293.589 180.323 293.519 180.494C293.448 180.664 293.412 180.848 293.412 181.033V193.082C293.412 193.266 293.448 193.45 293.519 193.621C293.589 193.791 293.693 193.947 293.823 194.078C293.954 194.208 294.109 194.312 294.28 194.383C294.451 194.453 294.634 194.489 294.818 194.489H306.857C307.23 194.489 307.588 194.34 307.852 194.077C308.115 193.813 308.263 193.455 308.264 193.082V181.033C308.263 180.659 308.115 180.301 307.851 180.038C307.588 179.774 307.23 179.625 306.857 179.625Z" fill="#1098F7"/>
<path d="M332.147 97.4582H320.102C319.73 97.4595 319.374 97.6083 319.111 97.8721C318.849 98.1359 318.702 98.4931 318.702 98.8655V110.92C318.702 111.292 318.849 111.648 319.112 111.911C319.375 112.174 319.731 112.322 320.102 112.322H332.147C332.519 112.322 332.876 112.174 333.139 111.912C333.403 111.649 333.552 111.292 333.553 110.92V98.8655C333.552 98.4925 333.403 98.1352 333.14 97.8715C332.876 97.6079 332.519 97.4593 332.147 97.4582Z" fill="white"/>
<path d="M332.147 118H320.102C319.73 118.001 319.374 118.15 319.111 118.414C318.849 118.678 318.702 119.035 318.702 119.407V131.462C318.702 131.833 318.849 132.19 319.112 132.453C319.375 132.716 319.731 132.864 320.102 132.864H332.147C332.519 132.864 332.876 132.716 333.139 132.453C333.403 132.191 333.552 131.834 333.553 131.462V119.407C333.552 119.034 333.403 118.677 333.14 118.413C332.876 118.15 332.519 118.001 332.147 118Z" fill="white"/>
<path d="M332.147 138.542H320.102C319.73 138.543 319.374 138.692 319.111 138.956C318.849 139.219 318.702 139.577 318.702 139.949V151.998C318.701 152.183 318.737 152.365 318.807 152.536C318.877 152.707 318.98 152.862 319.11 152.992C319.241 153.123 319.395 153.227 319.565 153.298C319.736 153.369 319.918 153.405 320.102 153.405H332.147C332.52 153.405 332.877 153.257 333.141 152.993C333.405 152.729 333.553 152.371 333.553 151.998V139.949C333.552 139.576 333.403 139.219 333.14 138.955C332.876 138.691 332.519 138.543 332.147 138.542Z" fill="white"/>
<path d="M332.147 159.083H320.102C319.73 159.085 319.374 159.234 319.111 159.497C318.849 159.761 318.702 160.118 318.702 160.491V172.54C318.701 172.724 318.737 172.907 318.807 173.078C318.877 173.248 318.98 173.403 319.11 173.534C319.241 173.665 319.395 173.769 319.565 173.84C319.736 173.91 319.918 173.947 320.102 173.947H332.147C332.52 173.947 332.877 173.799 333.141 173.535C333.405 173.271 333.553 172.913 333.553 172.54V160.491C333.552 160.118 333.403 159.761 333.14 159.497C332.876 159.233 332.519 159.085 332.147 159.083Z" fill="#1098F7"/>
<path d="M332.147 179.625H320.102C319.918 179.625 319.736 179.662 319.565 179.733C319.395 179.804 319.241 179.907 319.11 180.038C318.98 180.169 318.877 180.324 318.807 180.495C318.737 180.665 318.701 180.848 318.702 181.033V193.082C318.701 193.266 318.737 193.449 318.807 193.62C318.877 193.79 318.98 193.945 319.11 194.076C319.241 194.207 319.395 194.31 319.565 194.381C319.736 194.452 319.918 194.489 320.102 194.489H332.147C332.52 194.489 332.877 194.34 333.141 194.077C333.405 193.813 333.553 193.455 333.553 193.082V181.033C333.553 180.659 333.405 180.301 333.141 180.038C332.877 179.774 332.52 179.625 332.147 179.625Z" fill="#E6E6E6"/>
<path d="M357.436 97.4582H345.392C345.02 97.4595 344.663 97.6083 344.401 97.8721C344.138 98.1359 343.991 98.4931 343.991 98.8655V110.92C343.991 111.292 344.139 111.648 344.401 111.911C344.664 112.174 345.02 112.322 345.392 112.322H357.436C357.808 112.322 358.165 112.174 358.429 111.912C358.692 111.649 358.841 111.292 358.842 110.92V98.8655C358.841 98.4925 358.693 98.1352 358.429 97.8716C358.166 97.6079 357.809 97.4593 357.436 97.4582Z" fill="white"/>
<path d="M357.436 118H345.392C345.02 118.001 344.663 118.15 344.401 118.414C344.138 118.678 343.991 119.035 343.991 119.407V131.462C343.991 131.833 344.139 132.19 344.401 132.453C344.664 132.716 345.02 132.864 345.392 132.864H357.436C357.808 132.864 358.165 132.716 358.429 132.453C358.692 132.191 358.841 131.834 358.842 131.462V119.407C358.841 119.034 358.693 118.677 358.429 118.413C358.166 118.15 357.809 118.001 357.436 118Z" fill="white"/>
<path d="M357.436 138.542H345.392C345.02 138.543 344.663 138.692 344.401 138.956C344.138 139.219 343.991 139.577 343.991 139.949V151.998C343.991 152.183 344.026 152.365 344.097 152.536C344.167 152.707 344.27 152.862 344.4 152.992C344.53 153.123 344.685 153.227 344.855 153.298C345.025 153.369 345.208 153.405 345.392 153.405H357.436C357.809 153.405 358.167 153.257 358.43 152.993C358.694 152.729 358.842 152.371 358.842 151.998V139.949C358.841 139.576 358.693 139.219 358.429 138.955C358.166 138.691 357.809 138.543 357.436 138.542Z" fill="#1098F7"/>
<path d="M357.436 159.083H345.392C345.02 159.085 344.663 159.234 344.401 159.497C344.138 159.761 343.991 160.118 343.991 160.491V172.54C343.991 172.724 344.026 172.907 344.097 173.078C344.167 173.248 344.27 173.403 344.4 173.534C344.53 173.665 344.685 173.769 344.855 173.84C345.025 173.91 345.208 173.947 345.392 173.947H357.436C357.809 173.947 358.167 173.799 358.43 173.535C358.694 173.271 358.842 172.913 358.842 172.54V160.491C358.841 160.118 358.693 159.761 358.429 159.497C358.166 159.233 357.809 159.085 357.436 159.083Z" fill="#E6E6E6"/>
<path d="M357.436 179.625H345.392C345.208 179.625 345.025 179.662 344.855 179.733C344.685 179.804 344.53 179.907 344.4 180.038C344.27 180.169 344.167 180.324 344.097 180.495C344.026 180.665 343.991 180.848 343.991 181.033V193.082C343.991 193.266 344.026 193.449 344.097 193.62C344.167 193.79 344.27 193.945 344.4 194.076C344.53 194.207 344.685 194.31 344.855 194.381C345.025 194.452 345.208 194.489 345.392 194.489H357.436C357.809 194.489 358.167 194.34 358.43 194.077C358.694 193.813 358.842 193.455 358.842 193.082V181.033C358.842 180.659 358.694 180.302 358.43 180.038C358.167 179.774 357.809 179.625 357.436 179.625Z" fill="white"/>
<path d="M382.726 97.4582H370.681C370.309 97.4595 369.953 97.6083 369.69 97.8721C369.428 98.1359 369.28 98.4931 369.281 98.8655V110.92C369.281 111.292 369.428 111.648 369.691 111.911C369.954 112.174 370.31 112.322 370.681 112.322H382.726C383.098 112.322 383.455 112.174 383.718 111.912C383.982 111.649 384.131 111.292 384.132 110.92V98.8655C384.131 98.4925 383.982 98.1352 383.719 97.8716C383.455 97.6079 383.098 97.4593 382.726 97.4582Z" fill="#1098F7"/>
<path d="M382.726 118H370.681C370.309 118.001 369.953 118.15 369.69 118.414C369.428 118.678 369.28 119.035 369.281 119.407V131.462C369.281 131.833 369.428 132.19 369.691 132.453C369.954 132.716 370.31 132.864 370.681 132.864H382.726C383.098 132.864 383.455 132.716 383.718 132.453C383.982 132.191 384.131 131.834 384.132 131.462V119.407C384.131 119.034 383.982 118.677 383.719 118.413C383.455 118.15 383.098 118.001 382.726 118Z" fill="#1098F7"/>
<path d="M382.726 138.542H370.681C370.309 138.543 369.953 138.692 369.69 138.956C369.428 139.219 369.28 139.577 369.281 139.949V151.998C369.28 152.183 369.316 152.365 369.386 152.536C369.456 152.707 369.559 152.862 369.689 152.992C369.819 153.123 369.974 153.227 370.144 153.298C370.314 153.369 370.497 153.405 370.681 153.405H382.726C383.099 153.405 383.456 153.257 383.72 152.993C383.983 152.729 384.132 152.371 384.132 151.998V139.949C384.131 139.576 383.982 139.219 383.719 138.955C383.455 138.691 383.098 138.543 382.726 138.542Z" fill="#E6E6E6"/>
<path d="M382.726 159.083H370.681C370.309 159.085 369.953 159.234 369.69 159.497C369.428 159.761 369.28 160.118 369.281 160.491V172.54C369.28 172.724 369.316 172.907 369.386 173.078C369.456 173.248 369.559 173.403 369.689 173.534C369.819 173.665 369.974 173.769 370.144 173.84C370.314 173.91 370.497 173.947 370.681 173.947H382.726C383.099 173.947 383.456 173.799 383.72 173.535C383.983 173.271 384.132 172.913 384.132 172.54V160.491C384.131 160.118 383.982 159.761 383.719 159.497C383.455 159.233 383.098 159.085 382.726 159.083Z" fill="white"/>
<path d="M382.726 179.625H370.681C370.497 179.625 370.314 179.662 370.144 179.733C369.974 179.804 369.819 179.907 369.689 180.038C369.559 180.169 369.456 180.324 369.386 180.495C369.316 180.665 369.28 180.848 369.281 181.033V193.082C369.28 193.266 369.316 193.449 369.386 193.62C369.456 193.79 369.559 193.945 369.689 194.076C369.819 194.207 369.974 194.31 370.144 194.381C370.314 194.452 370.497 194.489 370.681 194.489H382.726C383.099 194.489 383.456 194.34 383.72 194.077C383.983 193.813 384.132 193.455 384.132 193.082V181.033C384.132 180.659 383.983 180.302 383.72 180.038C383.456 179.774 383.099 179.625 382.726 179.625Z" fill="#1098F7"/>
<path d="M408.015 97.4582H395.971C395.599 97.4595 395.242 97.6083 394.98 97.8721C394.717 98.1359 394.57 98.4931 394.57 98.8655V110.92C394.57 111.292 394.717 111.648 394.98 111.911C395.243 112.174 395.599 112.322 395.971 112.322H408.015C408.387 112.322 408.744 112.174 409.008 111.912C409.271 111.649 409.42 111.292 409.421 110.92V98.8655C409.42 98.4926 409.272 98.1352 409.008 97.8716C408.745 97.6079 408.388 97.4593 408.015 97.4582Z" fill="#1098F7"/>
<path d="M408.015 118H395.971C395.599 118.001 395.242 118.15 394.98 118.414C394.717 118.678 394.57 119.035 394.57 119.407V131.462C394.57 131.833 394.717 132.19 394.98 132.453C395.243 132.716 395.599 132.864 395.971 132.864H408.015C408.387 132.864 408.744 132.716 409.008 132.453C409.271 132.191 409.42 131.834 409.421 131.462V119.407C409.42 119.034 409.272 118.677 409.008 118.413C408.745 118.15 408.388 118.001 408.015 118Z" fill="#1098F7"/>
<path d="M408.015 138.542H395.971C395.599 138.543 395.242 138.692 394.98 138.956C394.717 139.219 394.57 139.577 394.57 139.949V151.998C394.569 152.183 394.605 152.365 394.675 152.536C394.745 152.707 394.849 152.862 394.979 152.992C395.109 153.123 395.263 153.227 395.434 153.298C395.604 153.369 395.786 153.405 395.971 153.405H408.015C408.388 153.405 408.745 153.257 409.009 152.993C409.273 152.729 409.421 152.371 409.421 151.998V139.949C409.42 139.576 409.272 139.219 409.008 138.955C408.745 138.691 408.388 138.543 408.015 138.542Z" fill="#E6E6E6"/>
<path d="M408.015 159.083H395.971C395.599 159.085 395.242 159.234 394.98 159.497C394.717 159.761 394.57 160.118 394.57 160.491V172.54C394.569 172.724 394.605 172.907 394.675 173.078C394.745 173.248 394.849 173.403 394.979 173.534C395.109 173.665 395.263 173.769 395.434 173.84C395.604 173.91 395.786 173.947 395.971 173.947H408.015C408.388 173.947 408.745 173.799 409.009 173.535C409.273 173.271 409.421 172.913 409.421 172.54V160.491C409.42 160.118 409.272 159.761 409.008 159.497C408.745 159.233 408.388 159.085 408.015 159.083Z" fill="#1098F7"/>
<path d="M408.015 179.625H395.971C395.786 179.625 395.604 179.662 395.434 179.733C395.263 179.804 395.109 179.907 394.979 180.038C394.849 180.169 394.745 180.324 394.675 180.495C394.605 180.665 394.569 180.848 394.57 181.033V193.082C394.569 193.266 394.605 193.449 394.675 193.62C394.745 193.79 394.849 193.945 394.979 194.076C395.109 194.207 395.263 194.31 395.434 194.381C395.604 194.452 395.786 194.489 395.971 194.489H408.015C408.388 194.489 408.745 194.34 409.009 194.077C409.273 193.813 409.421 193.455 409.421 193.082V181.033C409.421 180.659 409.273 180.302 409.009 180.038C408.745 179.774 408.388 179.625 408.015 179.625Z" fill="#1098F7"/>
<path d="M433.304 97.4582H421.26C420.888 97.4595 420.532 97.6083 420.269 97.8721C420.007 98.1359 419.859 98.4931 419.859 98.8655V110.92C419.859 111.292 420.007 111.648 420.27 111.911C420.532 112.174 420.889 112.322 421.26 112.322H433.304C433.676 112.322 434.033 112.174 434.297 111.912C434.561 111.649 434.709 111.292 434.711 110.92V98.8655C434.709 98.4926 434.561 98.1352 434.297 97.8716C434.034 97.6079 433.677 97.4593 433.304 97.4582Z" fill="#E6E6E6"/>
<path d="M433.304 118H421.26C420.888 118.001 420.532 118.15 420.269 118.414C420.006 118.678 419.859 119.035 419.859 119.407V131.462C419.859 131.833 420.007 132.19 420.27 132.453C420.532 132.716 420.889 132.864 421.26 132.864H433.304C433.676 132.864 434.033 132.716 434.297 132.453C434.561 132.191 434.709 131.834 434.711 131.462V119.407C434.709 119.034 434.561 118.677 434.297 118.413C434.034 118.15 433.677 118.001 433.304 118Z" fill="#1098F7"/>
<path d="M433.304 138.542H421.26C420.888 138.543 420.532 138.692 420.269 138.956C420.006 139.219 419.859 139.577 419.859 139.949V151.998C419.859 152.183 419.895 152.365 419.965 152.536C420.035 152.707 420.138 152.862 420.268 152.992C420.398 153.123 420.553 153.227 420.723 153.298C420.893 153.369 421.076 153.405 421.26 153.405H433.304C433.677 153.405 434.035 153.257 434.298 152.993C434.562 152.729 434.71 152.371 434.711 151.998V139.949C434.709 139.576 434.561 139.219 434.297 138.955C434.034 138.691 433.677 138.543 433.304 138.542Z" fill="#1098F7"/>
<path d="M433.304 159.083H421.26C420.888 159.085 420.532 159.234 420.269 159.497C420.006 159.761 419.859 160.118 419.859 160.491V172.54C419.859 172.724 419.895 172.907 419.965 173.078C420.035 173.248 420.138 173.403 420.268 173.534C420.398 173.665 420.553 173.769 420.723 173.84C420.893 173.91 421.076 173.947 421.26 173.947H433.304C433.677 173.947 434.035 173.799 434.299 173.535C434.562 173.271 434.71 172.913 434.711 172.54V160.491C434.709 160.118 434.561 159.761 434.297 159.497C434.034 159.233 433.677 159.085 433.304 159.083Z" fill="#1098F7"/>
<path d="M433.304 179.625H421.26C421.076 179.625 420.893 179.662 420.723 179.733C420.553 179.804 420.398 179.907 420.268 180.038C420.138 180.169 420.035 180.324 419.965 180.495C419.895 180.665 419.859 180.848 419.859 181.033V193.082C419.859 193.266 419.895 193.449 419.965 193.62C420.035 193.79 420.138 193.945 420.268 194.076C420.398 194.207 420.553 194.31 420.723 194.381C420.893 194.452 421.076 194.489 421.26 194.489H433.304C433.677 194.489 434.035 194.34 434.299 194.077C434.562 193.813 434.71 193.455 434.711 193.082V181.033C434.71 180.659 434.562 180.302 434.299 180.038C434.035 179.774 433.677 179.625 433.304 179.625Z" fill="#E6E6E6"/>
<path d="M458.594 97.4582H446.549C446.177 97.4595 445.821 97.6083 445.559 97.8721C445.296 98.1359 445.149 98.4931 445.149 98.8655V110.92C445.149 111.292 445.296 111.648 445.559 111.911C445.822 112.174 446.178 112.322 446.549 112.322H458.594C458.966 112.322 459.323 112.174 459.586 111.912C459.85 111.649 459.999 111.292 460 110.92V98.8655C459.999 98.4926 459.85 98.1352 459.587 97.8716C459.324 97.6079 458.966 97.4593 458.594 97.4582Z" fill="#E6E6E6"/>
<path d="M458.594 118H446.549C446.177 118.001 445.821 118.15 445.558 118.414C445.296 118.678 445.149 119.035 445.149 119.407V131.462C445.149 131.833 445.296 132.19 445.559 132.453C445.822 132.716 446.178 132.864 446.549 132.864H458.594C458.966 132.864 459.323 132.716 459.586 132.453C459.85 132.191 459.999 131.834 460 131.462V119.407C459.999 119.034 459.85 118.677 459.587 118.413C459.324 118.15 458.966 118.001 458.594 118Z" fill="#E6E6E6"/>
<path d="M458.594 138.542H446.549C446.177 138.543 445.821 138.692 445.559 138.956C445.296 139.219 445.149 139.577 445.149 139.949V151.998C445.148 152.183 445.184 152.365 445.254 152.536C445.324 152.707 445.427 152.862 445.558 152.992C445.688 153.123 445.842 153.227 446.012 153.298C446.183 153.369 446.365 153.405 446.549 153.405H458.594C458.967 153.405 459.324 153.257 459.588 152.993C459.852 152.729 460 152.371 460 151.998V139.949C459.999 139.576 459.85 139.219 459.587 138.955C459.324 138.691 458.966 138.543 458.594 138.542Z" fill="#1098F7"/>
<path d="M458.594 159.083H446.549C446.177 159.085 445.821 159.234 445.559 159.497C445.296 159.761 445.149 160.118 445.149 160.491V172.54C445.148 172.724 445.184 172.907 445.254 173.078C445.324 173.248 445.427 173.403 445.558 173.534C445.688 173.665 445.842 173.769 446.012 173.84C446.183 173.91 446.365 173.947 446.549 173.947H458.594C458.967 173.947 459.324 173.799 459.588 173.535C459.852 173.271 460 172.913 460 172.54V160.491C459.999 160.118 459.85 159.761 459.587 159.497C459.324 159.233 458.966 159.085 458.594 159.083Z" fill="#E6E6E6"/>
<path d="M458.594 179.625H446.549C446.365 179.625 446.183 179.662 446.012 179.733C445.842 179.804 445.688 179.907 445.558 180.038C445.427 180.169 445.324 180.324 445.254 180.495C445.184 180.665 445.148 180.848 445.149 181.033V193.082C445.148 193.266 445.184 193.449 445.254 193.62C445.324 193.79 445.427 193.945 445.558 194.076C445.688 194.207 445.842 194.31 446.012 194.381C446.183 194.452 446.365 194.489 446.549 194.489H458.594C458.967 194.489 459.324 194.34 459.588 194.077C459.852 193.813 460 193.455 460 193.082V181.033C460 180.659 459.852 180.302 459.588 180.038C459.324 179.774 458.967 179.625 458.594 179.625Z" fill="#E6E6E6"/>
<path d="M181.772 357.276H181.436L181.723 357.238L181.772 357.276Z" fill="#2F2E41"/>
<path d="M152.956 132.644C173.363 132.644 189.906 116.087 189.906 95.6628C189.906 75.2384 173.363 58.6812 152.956 58.6812C132.548 58.6812 116.005 75.2384 116.005 95.6628C116.005 116.087 132.548 132.644 152.956 132.644Z" fill="#FCE2C4"/>
<path d="M185.315 68.5485C185.315 68.5485 194.979 50.0578 173.717 48.3767C173.717 48.3767 155.591 31.9204 137.116 45.3683C137.116 45.3683 127.038 45.3683 121.528 56.7816C121.528 56.7816 113.602 53.7732 111.86 61.8246C111.86 61.8246 106.06 78.6344 111.86 93.7633C117.659 108.892 119.586 110.573 119.586 110.573C119.586 110.573 110.056 78.8547 133.253 77.1736C156.449 75.4926 182.407 60.9841 184.34 79.4749C186.274 97.9657 189.183 102.522 189.183 102.522C189.183 102.522 207.544 76.113 185.315 68.5485Z" fill="#2F2E41"/>
<path d="M248.539 186.803L248.42 187.431L247.084 194.489L237.852 243.313L237.306 246.187L236.159 252.266L234.591 260.558L231.113 278.935L230.118 284.202L229.745 286.177L229.615 286.87L228.582 292.321L228.269 293.966L225.748 312.657L223.547 328.944L230.913 336.316L226.522 340.712L223.639 357.237L223.645 357.275H105.997C101.238 354.19 96.5468 351.009 91.9245 347.732L92.8926 340.479C92.8926 340.479 96.2241 327.526 94.8233 325.978C93.428 324.43 90.3668 321.664 90.3668 321.664L94.223 312.657L94.7584 311.407L93.8606 292.77L93.8391 292.321L93.5416 286.177L93.5037 285.387L93.4442 284.201L92.3031 260.558L92.2814 260.168L91.9353 253.002L91.6108 246.187L91.4702 243.313L90.0803 214.554L89.1392 195.025L88.3171 178.023L91.6216 176.903L126.965 164.881L141.605 145.833L172.076 146.06L186.992 146.174L211.881 169.276L217.544 171.982L217.587 172.004L221.649 173.947L231.946 178.867L242.833 184.075L248.42 186.743L248.539 186.803Z" fill="#CACACA"/>
<path d="M145.543 301.794C143.31 302.66 140.915 303.025 138.526 302.864C136.137 302.703 133.812 302.02 131.715 300.862C129.618 299.705 127.8 298.101 126.39 296.164C124.979 294.228 124.01 292.005 123.551 289.653L65.9202 281.47L85.9542 258.789L137.61 270.037C141.609 269.526 145.656 270.502 148.985 272.778C152.314 275.055 154.692 278.474 155.67 282.389C156.648 286.303 156.157 290.441 154.291 294.017C152.424 297.594 149.312 300.361 145.543 301.794V301.794Z" fill="#FCE2C4"/>
<path d="M119.848 260.558C118.78 259.204 117.269 258.27 115.581 257.922L91.9354 253.002L89.507 252.498C88.0958 252.204 86.7626 251.614 85.5948 250.768C84.427 249.922 83.4509 248.839 82.7303 247.589C81.9829 246.277 81.5306 244.818 81.4053 243.313C81.2926 241.945 81.4563 240.568 81.8866 239.264L90.0803 214.554L95.3966 198.522C96.0409 196.588 96.4212 194.576 96.527 192.54C96.8232 186.907 95.0818 181.356 91.6216 176.903C88.5796 172.989 84.3604 170.158 79.5872 168.828C74.8141 167.499 69.7403 167.741 65.1153 169.519C64.9801 169.568 64.8395 169.622 64.7043 169.676C61.3875 171.002 58.4242 173.081 56.0485 175.75C53.6728 178.419 51.9498 181.604 51.0158 185.054L45.2397 206.083L33.3251 249.435C32.1324 253.778 31.8914 258.328 32.6187 262.774C33.346 267.219 35.0244 271.454 37.5389 275.19C40.0534 278.926 43.3448 282.074 47.1877 284.419C51.0306 286.764 55.3344 288.25 59.8043 288.775L93.8607 292.77L109.621 294.621C111.443 294.84 113.281 294.364 114.768 293.288C116.256 292.212 117.283 290.614 117.647 288.813C117.672 288.715 117.692 288.616 117.706 288.516L118.085 286.177L121.292 266.485L121.324 266.285C121.491 265.28 121.446 264.251 121.192 263.265C120.938 262.279 120.48 261.357 119.848 260.558Z" fill="#CACACA"/>
<path d="M182.252 302.425C184.584 302.967 187.007 302.991 189.35 302.494C191.692 301.998 193.898 300.993 195.81 299.551C197.723 298.109 199.297 296.265 200.42 294.149C201.544 292.032 202.19 289.695 202.314 287.302L258.215 271.067L235.186 251.44L185.631 269.866C181.6 269.925 177.73 271.462 174.756 274.185C171.781 276.909 169.908 280.63 169.491 284.643C169.075 288.657 170.144 292.684 172.495 295.961C174.847 299.238 178.319 301.538 182.252 302.425V302.425Z" fill="#FCE2C4"/>
<path d="M285.97 234.75L259.383 173.509C257.208 168.481 253.324 164.387 248.42 161.952C246.904 161.205 245.312 160.625 243.672 160.22C243.418 160.155 243.163 160.096 242.909 160.047C239.43 159.287 235.822 159.354 232.374 160.242C229.222 161.052 226.276 162.519 223.728 164.545C221.18 166.572 219.088 169.113 217.587 172.004C217.571 172.028 217.556 172.053 217.544 172.08C215.868 175.324 214.977 178.918 214.942 182.57C214.907 186.223 215.73 189.832 217.344 193.109L217.674 193.769L236.462 231.534C237.104 232.826 237.465 234.238 237.523 235.68C237.581 237.121 237.334 238.558 236.797 239.896C236.261 241.235 235.448 242.445 234.412 243.447C233.375 244.449 232.139 245.221 230.784 245.711L229.464 246.187L205.732 254.766C203.951 255.402 202.487 256.705 201.646 258.4C200.806 260.095 200.656 262.051 201.227 263.855L201.287 264.044L207.939 285.349C207.971 285.446 208.004 285.544 208.042 285.641C208.1 285.825 208.172 286.004 208.258 286.177C208.965 287.764 210.215 289.046 211.782 289.794C213.349 290.541 215.132 290.704 216.808 290.253L229.615 286.87L232.228 286.177L265.3 277.435C269.651 276.285 273.703 274.206 277.177 271.342C280.652 268.479 283.467 264.898 285.43 260.844C287.393 256.79 288.458 252.36 288.551 247.856C288.644 243.352 287.764 238.881 285.97 234.75L285.97 234.75Z" fill="#CACACA"/>
<path d="M24.2823 286.177C31.9462 295.533 40.2115 304.378 49.0255 312.657H293.466C295.821 312.661 298.079 313.599 299.744 315.266C301.408 316.933 302.345 319.193 302.347 321.55L302.698 383.544C317.736 376.629 331.819 367.8 344.597 357.275C348.145 354.357 351.583 351.314 354.91 348.144C357.09 346.076 359.217 343.958 361.292 341.789C376.849 325.569 389.446 306.748 398.513 286.177H24.2823Z" fill="#031926"/>
<path d="M361.292 341.789C359.221 343.959 357.094 346.078 354.91 348.144H302.877V341.789H361.292Z" fill="white"/>
<path d="M248.053 138.542C247.796 138.067 247.415 137.67 246.951 137.394C246.488 137.118 245.958 136.972 245.419 136.972H68.1116C67.3166 136.974 66.5549 137.291 65.9933 137.854C65.4317 138.418 65.116 139.18 65.1154 139.976V246.187H248.42V139.976C248.423 139.474 248.296 138.98 248.053 138.542Z" fill="#031926"/>
<path d="M64.9548 243.312V256.418C64.9548 256.961 65.0618 257.499 65.2695 258.001C65.4773 258.503 65.7818 258.96 66.1657 259.344C66.5495 259.728 67.0053 260.033 67.5068 260.241C68.0084 260.449 68.546 260.556 69.0889 260.556H136.745V286.422H135.847C135.776 286.422 135.706 286.436 135.641 286.463C135.576 286.49 135.517 286.529 135.467 286.579C135.417 286.629 135.377 286.688 135.351 286.754C135.324 286.819 135.31 286.889 135.31 286.959V288.758C135.31 288.829 135.323 288.899 135.35 288.964C135.377 289.029 135.417 289.089 135.467 289.138C135.517 289.188 135.576 289.228 135.641 289.255C135.706 289.282 135.776 289.296 135.847 289.296H177.847C177.918 289.296 177.987 289.282 178.052 289.255C178.118 289.228 178.177 289.188 178.227 289.138C178.277 289.089 178.316 289.029 178.343 288.964C178.37 288.899 178.384 288.829 178.384 288.758V286.959C178.384 286.889 178.37 286.819 178.343 286.754C178.316 286.688 178.277 286.629 178.227 286.579C178.177 286.529 178.118 286.49 178.052 286.463C177.987 286.436 177.918 286.422 177.847 286.422H176.948V260.556H244.605C245.148 260.556 245.685 260.449 246.187 260.241C246.688 260.033 247.144 259.728 247.528 259.344C247.912 258.96 248.216 258.503 248.424 258.001C248.632 257.499 248.739 256.961 248.739 256.418V243.312H64.9548Z" fill="#031926"/>
<path d="M154.626 205.694C163.977 205.694 171.558 198.107 171.558 188.748C171.558 179.389 163.977 171.802 154.626 171.802C145.275 171.802 137.694 179.389 137.694 188.748C137.694 198.107 145.275 205.694 154.626 205.694Z" fill="#1098F7"/>
<path d="M197.766 93.6421H195.062C195.062 73.1815 174.829 59.7739 154.418 59.7631C151.449 59.7544 148.487 60.0427 145.575 60.6237C142.298 61.2787 138.896 62.0635 135.554 63.0866C122.373 67.13 110.151 74.9461 110.151 93.6421C110.148 97.273 110.609 100.889 111.524 104.403L108.907 105.085C107.936 101.348 107.445 97.503 107.446 93.6421C107.446 77.3061 114.147 66.0853 125.721 59.395C131.806 55.8766 139.231 53.6087 147.739 52.5044C151.279 52.0331 154.858 51.9242 158.42 52.1797C181.892 53.8685 197.766 71.8824 197.766 93.6421Z" fill="#1098F7"/>
<path d="M202.271 95.1414L201.205 87.2603C200.943 85.27 199.985 83.437 198.501 82.0856C197.549 81.2047 196.409 80.552 195.167 80.1769C193.926 79.8018 192.616 79.7141 191.335 79.9205L189.642 80.1532C189.179 80.2143 188.733 80.3667 188.329 80.6018C187.925 80.8369 187.572 81.1499 187.29 81.5227C187.005 81.8942 186.797 82.3184 186.678 82.7709C186.558 83.2233 186.529 83.695 186.592 84.1587L189.053 102.313C189.154 103.053 189.486 103.743 190 104.284C190.515 104.825 191.186 105.19 191.919 105.328C192.137 105.372 192.358 105.394 192.579 105.393C192.738 105.393 192.897 105.382 193.055 105.361L194.948 105.106C196.102 104.953 197.213 104.565 198.212 103.967C199.21 103.368 200.077 102.572 200.757 101.626C200.903 101.42 201.043 101.209 201.173 100.993C202.187 99.2216 202.574 97.1599 202.271 95.1414Z" fill="#1098F7"/>
<path d="M188.55 80.4835C188.053 80.7249 187.621 81.0811 187.29 81.5227C187.005 81.8942 186.797 82.3185 186.678 82.7709C186.558 83.2234 186.529 83.6951 186.592 84.1588L189.053 102.313C189.154 103.053 189.486 103.743 190 104.284C190.515 104.825 191.186 105.19 191.919 105.328L188.55 80.4835Z" fill="white"/>
<path d="M202.271 95.1414L201.205 87.2603C200.943 85.27 199.985 83.437 198.501 82.0856L200.951 100.148C200.988 100.438 201.062 100.722 201.173 100.993C202.187 99.2216 202.573 97.1599 202.271 95.1414Z" fill="#031926"/>
<path d="M193.85 100.82C194.59 100.719 194.962 98.957 194.681 96.8834C194.4 94.8098 193.572 93.2102 192.832 93.3107C192.093 93.4111 191.721 95.1736 192.002 97.2472C192.283 99.3208 193.11 100.92 193.85 100.82Z" fill="#031926"/>
<path d="M192.228 91.0768C192.968 90.9763 193.34 89.2139 193.059 87.1403C192.778 85.0666 191.95 83.4671 191.21 83.5676C190.47 83.668 190.098 85.4305 190.379 87.5041C190.66 89.5777 191.488 91.1772 192.228 91.0768Z" fill="#031926"/>
<path d="M202.504 94.8658C203.244 94.7653 203.616 93.0029 203.335 90.9293C203.053 88.8556 202.226 87.2561 201.486 87.3566C200.746 87.457 200.374 89.2195 200.655 91.2931C200.936 93.3667 201.764 94.9662 202.504 94.8658Z" fill="#031926"/>
<path d="M154.418 59.763C151.449 59.7543 148.487 60.0427 145.575 60.6237C142.298 61.2786 138.896 62.0635 135.554 63.0865C130.335 62.8321 126.495 61.4789 125.721 59.395C131.806 55.8766 139.231 53.6086 147.739 52.5044C151.279 52.033 154.858 51.9242 158.42 52.1796C158.797 52.4009 159.123 52.6995 159.377 53.0559C159.63 53.4123 159.806 53.8183 159.891 54.2473C160.145 56.131 157.998 58.1338 154.418 59.763Z" fill="#031926"/>
<path d="M119.891 112.425L115.727 95.0982C115.578 94.4731 115.248 93.9058 114.779 93.4676C114.309 93.0294 113.721 92.7399 113.087 92.6353C112.908 92.6074 112.728 92.593 112.546 92.592C112.291 92.5929 112.037 92.6238 111.789 92.684L110.178 93.0738C108.103 93.576 106.311 94.8817 105.197 96.7043C104.083 98.5268 103.736 100.717 104.234 102.795L106.1 110.568C106.526 112.398 107.54 114.037 108.988 115.234C109.222 115.423 109.468 115.599 109.723 115.759C110.63 116.328 111.641 116.709 112.697 116.88C113.753 117.051 114.833 117.008 115.873 116.755L117.479 116.365C117.904 116.266 118.303 116.08 118.652 115.819C119.172 115.44 119.567 114.914 119.788 114.31C120.008 113.706 120.044 113.05 119.891 112.425Z" fill="#1098F7"/>
<path d="M111.161 109.201C111.887 109.026 112.079 107.235 111.59 105.2C111.1 103.166 110.115 101.658 109.389 101.833C108.663 102.008 108.471 103.799 108.96 105.834C109.45 107.868 110.435 109.376 111.161 109.201Z" fill="#031926"/>
<path d="M105.752 110.825C106.478 110.65 106.67 108.859 106.181 106.824C105.692 104.79 104.707 103.282 103.981 103.457C103.255 103.632 103.063 105.423 103.552 107.458C104.041 109.492 105.026 111 105.752 110.825Z" fill="#031926"/>
<path d="M120.156 112.36L115.992 95.0332C115.829 94.3568 115.471 93.7434 114.962 93.2697C114.454 92.796 113.816 92.4831 113.131 92.3701L118.815 116.035C119.376 115.624 119.803 115.055 120.042 114.401C120.281 113.747 120.32 113.036 120.156 112.36Z" fill="white"/>
<path d="M105.175 99.3635C105.06 98.8816 104.844 98.4297 104.542 98.0373C103.957 99.5547 103.849 101.215 104.234 102.795L106.1 110.568C106.526 112.398 107.54 114.037 108.988 115.234L105.175 99.3635Z" fill="#031926"/>
</g>
<defs>
<clipPath id="clip0_37_10">
<rect width="460" height="401" fill="white"/>
</clipPath>
</defs>
</svg>
